<svg width="32" height="32" viewBox="0 0 32 32" fill="none" xmlns="http://www.w3.org/2000/svg">
<path d="M0 4C0 1.79086 1.79086 0 4 0H28C30.2091 0 32 1.79086 32 4V28C32 30.2091 30.2091 32 28 32H4C1.79086 32 0 30.2091 0 28V4Z" fill="#C00AB5"/>
<path d="M19.3335 9.99955C19.5086 9.82445 19.7165 9.68556 19.9452 9.5908C20.174 9.49604 20.4192 9.44727 20.6668 9.44727C20.9145 9.44727 21.1597 9.49604 21.3884 9.5908C21.6172 9.68556 21.8251 9.82445 22.0002 9.99955C22.1753 10.1746 22.3142 10.3825 22.4089 10.6113C22.5037 10.8401 22.5524 11.0853 22.5524 11.3329C22.5524 11.5805 22.5037 11.8257 22.4089 12.0545C22.3142 12.2833 22.1753 12.4911 22.0002 12.6662L13.0002 21.6662L9.3335 22.6662L10.3335 18.9996L19.3335 9.99955Z" stroke="white" stroke-width="1.33333" stroke-linecap="round" stroke-linejoin="round"/>
</svg>
