<svg width="22" height="13" viewBox="0 0 22 13" fill="none" xmlns="http://www.w3.org/2000/svg">
<path d="M8.34203 12.7824L6.41103 12.2644L7.19803 9.32535C6.01999 8.89088 4.92514 8.25771 3.96103 7.45335L1.80803 9.60735L0.393025 8.19235L2.54703 6.03935C1.3311 4.58311 0.514113 2.83611 0.176025 0.969351L2.14403 0.610352C2.90303 4.81235 6.57903 8.00035 11 8.00035C15.42 8.00035 19.097 4.81235 19.856 0.610352L21.824 0.968351C21.4864 2.83537 20.6697 4.58272 19.454 6.03935L21.607 8.19235L20.192 9.60735L18.039 7.45335C17.0749 8.25771 15.9801 8.89088 14.802 9.32535L15.589 12.2654L13.658 12.7824L12.87 9.84235C11.6324 10.0544 10.3677 10.0544 9.13003 9.84235L8.34203 12.7824Z" fill="#212121"/>
</svg>
