<svg width="41" height="42" viewBox="0 0 41 42" fill="none" xmlns="http://www.w3.org/2000/svg">
<path d="M34.167 12.25L6.83366 12.25C4.94669 12.25 3.41699 13.817 3.41699 15.75L3.41699 33.25C3.41699 35.183 4.94669 36.75 6.83366 36.75L34.167 36.75C36.054 36.75 37.5837 35.183 37.5837 33.25L37.5837 15.75C37.5837 13.817 36.054 12.25 34.167 12.25Z" stroke="#C00AB5" stroke-width="1.69809" stroke-linecap="round" stroke-linejoin="round"/>
<path d="M27.3337 36.75L27.3337 8.75C27.3337 7.82174 26.9737 6.9315 26.3329 6.27513C25.6922 5.61875 24.8231 5.25 23.917 5.25L17.0837 5.25C16.1775 5.25 15.3085 5.61875 14.6677 6.27513C14.027 6.9315 13.667 7.82174 13.667 8.75L13.667 36.75" stroke="#C00AB5" stroke-width="1.69809" stroke-linecap="round" stroke-linejoin="round"/>
</svg>
