<svg width="40" height="42" viewBox="0 0 40 42" fill="none" xmlns="http://www.w3.org/2000/svg">
<path d="M27.5 16.4507L12.5 7.36816" stroke="#C00AB5" stroke-width="1.69809" stroke-linecap="round" stroke-linejoin="round"/>
<path d="M35 28.0003L35 14.0003C34.9994 13.3865 34.8451 12.7837 34.5526 12.2524C34.26 11.721 33.8396 11.2797 33.3333 10.9728L21.6667 3.97282C21.1599 3.66563 20.5851 3.50391 20 3.50391C19.4149 3.50391 18.8401 3.66563 18.3333 3.97282L6.66667 10.9728C6.16044 11.2797 5.73997 11.721 5.44744 12.2524C5.1549 12.7837 5.0006 13.3865 5 14.0003L5 28.0003C5.0006 28.6141 5.1549 29.2169 5.44744 29.7483C5.73997 30.2797 6.16044 30.7209 6.66667 31.0278L18.3333 38.0278C18.8401 38.335 19.4149 38.4967 20 38.4967C20.5851 38.4967 21.1599 38.335 21.6667 38.0278L33.3333 31.0278C33.8396 30.7209 34.26 30.2797 34.5526 29.7483C34.8451 29.2169 34.9994 28.6141 35 28.0003Z" stroke="#C00AB5" stroke-width="1.69809" stroke-linecap="round" stroke-linejoin="round"/>
<path d="M5.4502 12.1797L20.0002 21.0172L34.5502 12.1797" stroke="#C00AB5" stroke-width="1.69809" stroke-linecap="round" stroke-linejoin="round"/>
<path d="M20 38.64L20 21" stroke="#C00AB5" stroke-width="1.69809" stroke-linecap="round" stroke-linejoin="round"/>
</svg>
