<svg width="40" height="42" viewBox="0 0 40 42" fill="none" xmlns="http://www.w3.org/2000/svg">
<path d="M10 3.5L5 10.5L5 35C5 35.9283 5.35119 36.8185 5.97631 37.4749C6.60143 38.1313 7.44928 38.5 8.33333 38.5L31.6667 38.5C32.5507 38.5 33.3986 38.1313 34.0237 37.4749C34.6488 36.8185 35 35.9283 35 35L35 10.5L30 3.5L10 3.5Z" stroke="#C00AB5" stroke-width="1.69809" stroke-linecap="round" stroke-linejoin="round"/>
<path d="M5 10.5L35 10.5" stroke="#C00AB5" stroke-width="1.69809" stroke-linecap="round" stroke-linejoin="round"/>
<path d="M26.6663 17.5C26.6663 19.3565 25.964 21.137 24.7137 22.4497C23.4635 23.7625 21.7678 24.5 19.9997 24.5C18.2316 24.5 16.5359 23.7625 15.2856 22.4497C14.0354 21.137 13.333 19.3565 13.333 17.5" stroke="#C00AB5" stroke-width="1.69809" stroke-linecap="round" stroke-linejoin="round"/>
</svg>
