<svg width="41" height="42" viewBox="0 0 41 42" fill="none" xmlns="http://www.w3.org/2000/svg">
<g clip-path="url(#clip0)">
<path d="M27.333 5.25L1.70801 5.25L1.70801 28L27.333 28L27.333 5.25Z" stroke="#C00AB5" stroke-width="1.69809" stroke-linecap="round" stroke-linejoin="round"/>
<path d="M27.334 14L34.1673 14L39.2923 19.25L39.2923 28L27.334 28L27.334 14Z" stroke="#C00AB5" stroke-width="1.69809" stroke-linecap="round" stroke-linejoin="round"/>
<path d="M9.39583 36.75C11.7546 36.75 13.6667 34.7912 13.6667 32.375C13.6667 29.9588 11.7546 28 9.39583 28C7.03712 28 5.125 29.9588 5.125 32.375C5.125 34.7912 7.03712 36.75 9.39583 36.75Z" stroke="#C00AB5" stroke-width="1.69809" stroke-linecap="round" stroke-linejoin="round"/>
<path d="M31.6048 36.75C33.9635 36.75 35.8757 34.7912 35.8757 32.375C35.8757 29.9588 33.9635 28 31.6048 28C29.2461 28 27.334 29.9588 27.334 32.375C27.334 34.7912 29.2461 36.75 31.6048 36.75Z" stroke="#C00AB5" stroke-width="1.69809" stroke-linecap="round" stroke-linejoin="round"/>
</g>
<defs>
<clipPath id="clip0">
<rect width="41" height="42" fill="white"/>
</clipPath>
</defs>
</svg>
