<svg width="118" height="118" viewBox="0 0 118 118" fill="none" xmlns="http://www.w3.org/2000/svg">
<path d="M114.313 33.3659V25.6369H105.271V9.68106C105.257 8.15507 104.638 6.69701 103.55 5.62684C102.462 4.55667 100.994 3.96181 99.468 3.97281H18.5325C17.0065 3.96181 15.5384 4.55667 14.4505 5.62684C13.3625 6.69701 12.7436 8.15507 12.7295 9.68106V108.783C12.7436 110.309 13.3625 111.767 14.4505 112.837C15.5384 113.907 17.0065 114.502 18.5325 114.491H99.468C100.994 114.502 102.462 113.907 103.55 112.837C104.638 111.767 105.257 110.309 105.271 108.783V92.3659H114.313V84.6369H105.271V62.8659H114.313V55.1369H105.271V33.3659H114.313ZM97.542 55.1369H86.6565V62.8659H97.542V84.6369H86.6565V92.3659H97.542V106.762H20.4585V11.7018H97.542V25.6369H86.6565V33.3659H97.542V55.1369Z" fill="url(#paint0_linear_2850_46659)"/>
<path d="M72.284 70.7366L65.6592 66.4303L68.8443 58.6739V46.4888C68.8443 42.4721 67.2486 38.6199 64.4084 35.7796C61.5682 32.9394 57.716 31.3438 53.6992 31.3438C49.6825 31.3438 45.8303 32.9394 42.9901 35.7796C40.1498 38.6199 38.5542 42.4721 38.5542 46.4888V58.6015L41.486 66.5951L35.1145 70.7366C33.5299 71.7623 32.2279 73.169 31.3276 74.828C30.4272 76.487 29.9574 78.3453 29.961 80.2329V92.1875H77.4375V80.2329C77.4411 78.3453 76.9712 76.487 76.0709 74.828C75.1706 73.169 73.8686 71.7623 72.284 70.7366ZM70.0625 84.8125H37.336V80.2329C37.3347 79.5744 37.4986 78.9262 37.8127 78.3475C38.1267 77.7688 38.5809 77.2781 39.1336 76.9203L50.4342 69.5748L45.9292 57.2908V46.4888C45.9292 44.428 46.7478 42.4517 48.205 40.9945C49.6622 39.5374 51.6385 38.7188 53.6992 38.7188C55.76 38.7188 57.7363 39.5374 59.1935 40.9945C60.6506 42.4517 61.4693 44.428 61.4693 46.4888V57.2187L56.5142 69.2831L68.2649 76.9203C68.8176 77.2781 69.2717 77.7688 69.5858 78.3475C69.8998 78.9262 70.0637 79.5744 70.0625 80.2329V84.8125Z" fill="url(#paint1_linear_2850_46659)"/>
<defs>
<linearGradient id="paint0_linear_2850_46659" x1="57.3102" y1="141.313" x2="57.5838" y2="39.4296" gradientUnits="userSpaceOnUse">
<stop stop-color="#9D5EA6"/>
<stop offset="1" stop-color="#ED2377"/>
</linearGradient>
<linearGradient id="paint1_linear_2850_46659" x1="50.7965" y1="106.954" x2="50.9739" y2="50.8641" gradientUnits="userSpaceOnUse">
<stop stop-color="#9D5EA6"/>
<stop offset="1" stop-color="#ED2377"/>
</linearGradient>
</defs>
</svg>
