<svg width="80" height="80" viewBox="0 0 80 80" fill="none" xmlns="http://www.w3.org/2000/svg">
<path d="M32.9688 51.875L30.4397 46.875L28.2812 51.875H25.9375C24.6248 51.875 23.5938 52.9061 23.5938 54.2188V63.5938C23.5938 72.6406 30.9531 80 40 80C49.0469 80 56.4062 72.6406 56.4062 63.5938V54.2188C56.4062 52.9061 55.3752 51.875 54.0625 51.875H51.7188L49.3934 46.875L47.0312 51.875H32.9688ZM70.288 23.6366C70.4092 22.7645 70.4688 21.9269 70.4688 21.0938C70.4688 9.46203 61.0067 0 49.375 0C41.9386 0 35.0653 3.98484 31.2864 10.318C29.5402 9.69078 27.748 9.375 25.9375 9.375C17.6153 9.375 10.7192 15.6052 9.66859 23.6458C4.25781 24.6803 0 29.448 0 35.1562C0 41.6177 5.41359 46.875 11.875 46.875H30.4397H49.3934H68.125C74.5864 46.875 80 41.6177 80 35.1562C80 29.4319 75.7194 24.6552 70.288 23.6366Z" fill="url(#paint0_linear)"/>
<path d="M40 28.125C33.5312 28.125 28.2812 33.375 28.2812 39.8438V51.875H32.9688V39.8438C32.9688 35.9531 36.1092 32.8125 40 32.8125C43.8908 32.8125 47.0312 35.9531 47.0312 39.8438V51.875H51.7188V39.8438C51.7188 33.375 46.4688 28.125 40 28.125ZM40 61.25C38.7045 61.25 37.6562 62.2983 37.6562 63.5938V68.2812C37.6562 69.5767 38.7045 70.625 40 70.625C41.2955 70.625 42.3438 69.5767 42.3438 68.2812V63.5938C42.3438 62.2983 41.2955 61.25 40 61.25Z" fill="url(#paint1_linear)"/>
<defs>
<linearGradient id="paint0_linear" x1="35.1087" y1="99.4156" x2="35.2908" y2="25.6659" gradientUnits="userSpaceOnUse">
<stop stop-color="#9D5EA6"/>
<stop offset="1" stop-color="#ED2377"/>
</linearGradient>
<linearGradient id="paint1_linear" x1="40" y1="70.625" x2="40" y2="28.125" gradientUnits="userSpaceOnUse">
<stop stop-color="#FFC2CC"/>
<stop offset="1" stop-color="#FFF2F4"/>
</linearGradient>
</defs>
</svg>
