<svg width="15" height="16" viewBox="0 0 15 16" fill="none" xmlns="http://www.w3.org/2000/svg">
<path fill-rule="evenodd" clip-rule="evenodd" d="M14.2713 2.90909H11.3622V2.18182C11.3622 0.945455 10.4168 0 9.1804 0H6.27131C5.03494 0 4.08949 0.945455 4.08949 2.18182V2.90909H1.1804C0.744034 2.90909 0.453125 3.2 0.453125 3.63636C0.453125 4.07273 0.744034 4.36364 1.1804 4.36364H1.90767V13.8182C1.90767 15.0545 2.85313 16 4.08949 16H11.3622C12.5986 16 13.544 15.0545 13.544 13.8182V4.36364H14.2713C14.7077 4.36364 14.9986 4.07273 14.9986 3.63636C14.9986 3.2 14.7077 2.90909 14.2713 2.90909ZM5.54403 2.18182C5.54403 1.74545 5.83494 1.45455 6.27131 1.45455H9.1804C9.61676 1.45455 9.90767 1.74545 9.90767 2.18182V2.90909H5.54403V2.18182ZM11.3622 14.5455C11.7986 14.5455 12.0895 14.2545 12.0895 13.8182V4.36364H3.36222V13.8182C3.36222 14.2545 3.65312 14.5455 4.08949 14.5455H11.3622ZM6.99858 7.27273V11.6364C6.99858 12.0727 6.70767 12.3636 6.27131 12.3636C5.83494 12.3636 5.54403 12.0727 5.54403 11.6364V7.27273C5.54403 6.83636 5.83494 6.54545 6.27131 6.54545C6.70767 6.54545 6.99858 6.83636 6.99858 7.27273ZM9.90767 11.6364V7.27273C9.90767 6.83636 9.61676 6.54545 9.1804 6.54545C8.74403 6.54545 8.45312 6.83636 8.45312 7.27273V11.6364C8.45312 12.0727 8.74403 12.3636 9.1804 12.3636C9.61676 12.3636 9.90767 12.0727 9.90767 11.6364Z" fill="white"/>
</svg>
