<svg width="84" height="24" viewBox="0 0 84 24" fill="none" xmlns="http://www.w3.org/2000/svg">
<rect x="0.820312" y="0.1875" width="82.9875" height="23.2649" rx="5.67436" fill="#F62F5E"/>
<path d="M10.5899 14.2734V12.2389H10.1121V11.6294H10.5899V11.0363H10.1121V10.4268H10.5899V8.39224H11.8831L12.5256 10.4268H13.2751V8.39224H14.1894V10.4268H14.6589V11.0363H14.1894V11.6294H14.6589V12.2389H14.1894V14.2734H12.888L12.229 12.2389H11.5042V14.2734H10.5899ZM11.4712 10.4268H11.7019L11.463 9.63602H11.43L11.4712 10.4268ZM11.5042 11.6294H12.0478L11.8666 11.0363H11.4877L11.5042 11.6294ZM12.9127 11.6294H13.2916L13.2751 11.0363H12.7232L12.9127 11.6294ZM13.2998 12.9885H13.341L13.3081 12.2389H13.0857L13.2998 12.9885ZM16.7114 9.57013V8.26045H18.9931V14.2734H17.5269V9.57013H16.7114ZM19.9566 11.1846C19.9566 10.2401 20.1378 9.49599 20.5002 8.95235C20.8682 8.40871 21.4585 8.13689 22.2712 8.13689C23.0839 8.13689 23.6715 8.40871 24.0339 8.95235C24.4018 9.49599 24.5858 10.2401 24.5858 11.1846C24.5858 12.1401 24.4018 12.8896 24.0339 13.4333C23.6715 13.9769 23.0839 14.2487 22.2712 14.2487C21.4585 14.2487 20.8682 13.9769 20.5002 13.4333C20.1378 12.8896 19.9566 12.1401 19.9566 11.1846ZM23.202 11.1846C23.202 10.63 23.1416 10.2044 23.0207 9.90784C22.8999 9.60582 22.6501 9.45481 22.2712 9.45481C21.8923 9.45481 21.6424 9.60582 21.5216 9.90784C21.4008 10.2044 21.3404 10.63 21.3404 11.1846C21.3404 11.558 21.3624 11.8682 21.4063 12.1154C21.4502 12.357 21.5381 12.5547 21.6699 12.7084C21.8072 12.8567 22.0076 12.9308 22.2712 12.9308C22.5348 12.9308 22.7325 12.8567 22.8642 12.7084C23.0015 12.5547 23.0921 12.357 23.1361 12.1154C23.18 11.8682 23.202 11.558 23.202 11.1846ZM26.9856 12.972L26.0713 15.336H25.1734L25.6512 12.972H26.9856ZM28.6833 11.0445C28.1671 10.77 27.909 10.3389 27.909 9.75134C27.909 9.45481 27.9859 9.18573 28.1396 8.94412C28.2934 8.69701 28.5268 8.50207 28.8398 8.35929C29.1528 8.21103 29.5372 8.13689 29.993 8.13689C30.4487 8.13689 30.8304 8.21103 31.1379 8.35929C31.4509 8.50207 31.6843 8.69701 31.838 8.94412C31.9918 9.18573 32.0687 9.45481 32.0687 9.75134C32.0687 10.0479 31.9973 10.306 31.8545 10.5256C31.7172 10.7453 31.5305 10.9182 31.2944 11.0445C31.5909 11.1873 31.8188 11.385 31.9781 11.6376C32.1373 11.8847 32.2169 12.1758 32.2169 12.5107C32.2169 12.9006 32.1181 13.2383 31.9204 13.5239C31.7227 13.8039 31.4536 14.0181 31.1132 14.1664C30.7782 14.3146 30.4048 14.3888 29.993 14.3888C29.5811 14.3888 29.205 14.3146 28.8645 14.1664C28.5295 14.0181 28.2632 13.8039 28.0655 13.5239C27.8678 13.2383 27.769 12.9006 27.769 12.5107C27.769 12.1703 27.8486 11.8765 28.0078 11.6294C28.1671 11.3768 28.3922 11.1818 28.6833 11.0445ZM30.7013 9.9655C30.7013 9.74036 30.6354 9.56738 30.5036 9.44657C30.3773 9.32027 30.2071 9.25712 29.993 9.25712C29.7788 9.25712 29.6058 9.32027 29.474 9.44657C29.3477 9.57287 29.2846 9.74859 29.2846 9.97374C29.2846 10.1879 29.3505 10.3581 29.4823 10.4844C29.6141 10.6052 29.7843 10.6656 29.993 10.6656C30.2016 10.6656 30.3719 10.6025 30.5036 10.4762C30.6354 10.3499 30.7013 10.1797 30.7013 9.9655ZM29.993 11.6541C29.7349 11.6541 29.5262 11.7255 29.3669 11.8682C29.2077 12.0055 29.1281 12.1977 29.1281 12.4448C29.1281 12.6755 29.205 12.8649 29.3587 13.0132C29.518 13.1614 29.7294 13.2356 29.993 13.2356C30.2565 13.2356 30.4625 13.1614 30.6107 13.0132C30.7645 12.8649 30.8414 12.6755 30.8414 12.4448C30.8414 12.2032 30.7617 12.011 30.6025 11.8682C30.4487 11.7255 30.2456 11.6541 29.993 11.6541ZM33.069 13.2026V12.0659L35.6718 8.34282H37.2451V11.9836H37.9205V13.2026H37.2451V14.2734H35.8366V13.2026H33.069ZM35.9354 9.89137L34.5516 11.9836H35.9354V9.89137ZM38.6104 11.1846C38.6104 10.2401 38.7917 9.49599 39.1541 8.95235C39.522 8.40871 40.1123 8.13689 40.925 8.13689C41.7377 8.13689 42.3253 8.40871 42.6877 8.95235C43.0557 9.49599 43.2396 10.2401 43.2396 11.1846C43.2396 12.1401 43.0557 12.8896 42.6877 13.4333C42.3253 13.9769 41.7377 14.2487 40.925 14.2487C40.1123 14.2487 39.522 13.9769 39.1541 13.4333C38.7917 12.8896 38.6104 12.1401 38.6104 11.1846ZM41.8558 11.1846C41.8558 10.63 41.7954 10.2044 41.6746 9.90784C41.5538 9.60582 41.3039 9.45481 40.925 9.45481C40.5461 9.45481 40.2963 9.60582 40.1755 9.90784C40.0547 10.2044 39.9942 10.63 39.9942 11.1846C39.9942 11.558 40.0162 11.8682 40.0601 12.1154C40.1041 12.357 40.1919 12.5547 40.3237 12.7084C40.461 12.8567 40.6614 12.9308 40.925 12.9308C41.1886 12.9308 41.3863 12.8567 41.5181 12.7084C41.6554 12.5547 41.746 12.357 41.7899 12.1154C41.8338 11.8682 41.8558 11.558 41.8558 11.1846ZM47.2621 6.44831L45.0546 15.8138H43.6955L45.903 6.44831H47.2621ZM54.4046 8.49108V14.2734H52.9961V10.8057L51.7028 14.2734H50.5661L49.2647 10.7974V14.2734H47.8562V8.49108H49.5201L51.1427 12.4943L52.7489 8.49108H54.4046ZM57.5097 14.3393C57.0594 14.3393 56.653 14.2432 56.2906 14.051C55.9336 13.8588 55.6508 13.5843 55.4422 13.2273C55.239 12.8704 55.1374 12.4531 55.1374 11.9753C55.1374 11.5031 55.2417 11.0885 55.4504 10.7315C55.6591 10.3691 55.9446 10.0918 56.3071 9.89961C56.6695 9.70741 57.0758 9.61131 57.5261 9.61131C57.9764 9.61131 58.3828 9.70741 58.7452 9.89961C59.1076 10.0918 59.3932 10.3691 59.6018 10.7315C59.8105 11.0885 59.9149 11.5031 59.9149 11.9753C59.9149 12.4476 59.8078 12.8649 59.5936 13.2273C59.3849 13.5843 59.0966 13.8588 58.7287 14.051C58.3663 14.2432 57.9599 14.3393 57.5097 14.3393ZM57.5097 13.1203C57.7787 13.1203 58.0066 13.0214 58.1933 12.8237C58.3855 12.626 58.4816 12.3432 58.4816 11.9753C58.4816 11.6074 58.3883 11.3246 58.2016 11.1269C58.0203 10.9292 57.7952 10.8304 57.5261 10.8304C57.2516 10.8304 57.0237 10.9292 56.8425 11.1269C56.6612 11.3191 56.5706 11.6019 56.5706 11.9753C56.5706 12.3432 56.6585 12.626 56.8342 12.8237C57.0154 13.0214 57.2406 13.1203 57.5097 13.1203ZM63.4627 9.62779C64.0008 9.62779 64.4291 9.80351 64.7476 10.155C65.0716 10.5009 65.2336 10.9786 65.2336 11.5882V14.2734H63.8333V11.7776C63.8333 11.4701 63.7537 11.2312 63.5945 11.061C63.4352 10.8908 63.2211 10.8057 62.952 10.8057C62.6829 10.8057 62.4687 10.8908 62.3095 11.061C62.1502 11.2312 62.0706 11.4701 62.0706 11.7776V14.2734H60.6621V9.67721H62.0706V10.2867C62.2134 10.0836 62.4056 9.92432 62.6472 9.809C62.8888 9.68819 63.1606 9.62779 63.4627 9.62779ZM68.7741 13.0791V14.2734H68.0575C67.5468 14.2734 67.1487 14.1499 66.8631 13.9028C66.5776 13.6502 66.4348 13.2411 66.4348 12.6755V10.8469H65.8747V9.67721H66.4348V8.55698H67.8433V9.67721H68.7659V10.8469H67.8433V12.6919C67.8433 12.8292 67.8763 12.9281 67.9422 12.9885C68.0081 13.0489 68.1179 13.0791 68.2716 13.0791H68.7741ZM72.384 9.62779C72.9111 9.62779 73.334 9.80351 73.6524 10.155C73.9709 10.5009 74.1302 10.9786 74.1302 11.5882V14.2734H72.7299V11.7776C72.7299 11.4701 72.6503 11.2312 72.491 11.061C72.3318 10.8908 72.1176 10.8057 71.8486 10.8057C71.5795 10.8057 71.3653 10.8908 71.2061 11.061C71.0468 11.2312 70.9672 11.4701 70.9672 11.7776V14.2734H69.5587V8.17808H70.9672V10.295C71.11 10.0918 71.3049 9.92981 71.552 9.809C71.7991 9.68819 72.0764 9.62779 72.384 9.62779Z" fill="white"/>
</svg>
