<svg width="103" height="40" viewBox="0 0 103 40" fill="none" xmlns="http://www.w3.org/2000/svg">
<path d="M0 9C0 4.02944 4.02944 0 9 0H94C98.9706 0 103 4.02944 103 9V31C103 35.9706 98.9706 40 94 40H9C4.02944 40 0 35.9706 0 31V9Z" fill="#F4F3FE"/>
<g clip-path="url(#clip0_2149:42013)">
<path d="M26.667 25.9997V21.333" stroke="#C00AB5" stroke-width="2" stroke-linecap="round" stroke-linejoin="round"/>
<path d="M26.667 18.6667V14" stroke="#C00AB5" stroke-width="2" stroke-linecap="round" stroke-linejoin="round"/>
<path d="M32 26V20" stroke="#C00AB5" stroke-width="2" stroke-linecap="round" stroke-linejoin="round"/>
<path d="M32 17.3333V14" stroke="#C00AB5" stroke-width="2" stroke-linecap="round" stroke-linejoin="round"/>
<path d="M37.333 26.0003V22.667" stroke="#C00AB5" stroke-width="2" stroke-linecap="round" stroke-linejoin="round"/>
<path d="M37.333 20V14" stroke="#C00AB5" stroke-width="2" stroke-linecap="round" stroke-linejoin="round"/>
<path d="M24.667 21.333H28.667" stroke="#C00AB5" stroke-width="2" stroke-linecap="round" stroke-linejoin="round"/>
<path d="M30 17.333H34" stroke="#C00AB5" stroke-width="2" stroke-linecap="round" stroke-linejoin="round"/>
<path d="M35.333 22.667H39.333" stroke="#C00AB5" stroke-width="2" stroke-linecap="round" stroke-linejoin="round"/>
</g>
<path d="M47.5989 25V15.13H53.7029V16.096H48.7469V19.54H53.4229V20.506H48.7469V25H47.5989ZM54.9748 16.502V15.228H56.3748V16.502H54.9748ZM55.1148 25V18.196H56.2488V25H55.1148ZM60.4547 25.126C59.764 25.126 59.2414 24.9253 58.8867 24.524C58.5414 24.1133 58.3687 23.5207 58.3687 22.746V15.13H59.5027V22.662C59.5027 23.6607 59.8994 24.16 60.6927 24.16C60.926 24.16 61.136 24.132 61.3227 24.076L61.2947 25.028C61.0054 25.0933 60.7254 25.126 60.4547 25.126ZM65.1182 25.126C64.3156 25.126 63.7136 24.916 63.3122 24.496C62.9109 24.0667 62.7102 23.4507 62.7102 22.648V19.078H61.3802V18.196H62.7102V16.11H63.8442V18.196H66.0002V19.078H63.8442V22.536C63.8442 23.068 63.9562 23.474 64.1802 23.754C64.4042 24.0247 64.7682 24.16 65.2722 24.16C65.4216 24.16 65.5709 24.1413 65.7202 24.104C65.8696 24.0667 66.0049 24.0293 66.1262 23.992L66.3222 24.86C66.2009 24.9253 66.0236 24.986 65.7902 25.042C65.5569 25.098 65.3329 25.126 65.1182 25.126ZM70.2804 25.126C69.2071 25.126 68.3577 24.8133 67.7324 24.188C67.1071 23.5533 66.7944 22.6947 66.7944 21.612C66.7944 20.912 66.9344 20.296 67.2144 19.764C67.4944 19.2227 67.8771 18.8073 68.3624 18.518C68.8571 18.2193 69.4264 18.07 70.0704 18.07C70.9944 18.07 71.7177 18.3687 72.2404 18.966C72.7631 19.554 73.0244 20.366 73.0244 21.402V21.836H67.9004C67.9377 22.6107 68.1617 23.2033 68.5724 23.614C68.9831 24.0153 69.5524 24.216 70.2804 24.216C70.6911 24.216 71.0831 24.1553 71.4564 24.034C71.8297 23.9033 72.1844 23.6933 72.5204 23.404L72.9124 24.202C72.6044 24.4913 72.2124 24.72 71.7364 24.888C71.2604 25.0467 70.7751 25.126 70.2804 25.126ZM70.0984 18.91C69.4544 18.91 68.9457 19.1107 68.5724 19.512C68.1991 19.9133 67.9797 20.4407 67.9144 21.094H72.0444C72.0164 20.4033 71.8344 19.8667 71.4984 19.484C71.1717 19.1013 70.7051 18.91 70.0984 18.91ZM74.6656 25V18.196H75.7716V19.414C76.1356 18.5927 76.8822 18.14 78.0116 18.056L78.4176 18.014L78.5016 18.994L77.7876 19.078C77.1436 19.134 76.6536 19.3393 76.3176 19.694C75.9816 20.0393 75.8136 20.5153 75.8136 21.122V25H74.6656Z" fill="#C00AB5"/>
<defs>
<clipPath id="clip0_2149:42013">
<rect width="16" height="16" fill="white" transform="translate(24 12)"/>
</clipPath>
</defs>
</svg>
