<svg width="118" height="120" viewBox="0 0 118 120" fill="none" xmlns="http://www.w3.org/2000/svg">
<path d="M85.8285 28.6757L93.4958 26.6951C94.1283 26.532 94.7225 26.2458 95.2443 25.853C95.7662 25.4601 96.2055 24.9683 96.5371 24.4055C96.8687 23.8428 97.0862 23.2202 97.1771 22.5733C97.2679 21.9265 97.2304 21.2681 97.0667 20.6357L95.086 12.9695C94.923 12.337 94.637 11.7429 94.2442 11.221C93.8515 10.6992 93.3597 10.2599 92.797 9.92821C92.2344 9.59657 91.6119 9.37908 90.9651 9.28821C90.3183 9.19733 89.66 9.23484 89.0277 9.39858L81.3593 11.3793C80.0834 11.7106 78.991 12.5345 78.3217 13.6703C77.6525 14.806 77.4611 16.1608 77.7895 17.4375L79.7702 25.1048C80.1 26.3817 80.9236 27.4753 82.0598 28.145C83.1959 28.8147 84.5515 29.0056 85.8285 28.6757ZM83.3159 24.1888L81.3342 16.5205C81.2483 16.1841 81.2993 15.8275 81.4759 15.5286C81.6525 15.2298 81.9404 15.0131 82.2764 14.9261L89.9448 12.9464C90.1113 12.9034 90.2846 12.8936 90.4549 12.9176C90.6252 12.9417 90.789 12.9991 90.9371 13.0867C91.0851 13.1742 91.2144 13.2901 91.3175 13.4277C91.4207 13.5654 91.4956 13.722 91.5381 13.8886L93.5188 21.5549C93.5619 21.7215 93.5717 21.895 93.5477 22.0654C93.5236 22.2359 93.4662 22.3999 93.3787 22.5481C93.2912 22.6963 93.1753 22.8258 93.0376 22.9291C92.9 23.0325 92.7433 23.1076 92.5766 23.1503L84.9093 25.1321C84.5732 25.217 84.2173 25.1654 83.9191 24.9887C83.6209 24.812 83.4049 24.5244 83.318 24.1888H83.3159ZM115.751 78.1155C116.237 78.1155 116.703 77.9224 117.047 77.5789C117.39 77.2353 117.583 76.7693 117.583 76.2834V45.5472C117.581 43.6737 116.836 41.8777 115.511 40.5529C114.186 39.2282 112.39 38.483 110.517 38.4808H109.737L102.053 8.73172C101.336 5.9599 99.5484 3.58603 97.0822 2.13182C94.6161 0.677612 91.6734 0.262052 88.901 0.976472L23.3468 17.916C21.974 18.2697 20.6844 18.8905 19.5517 19.7429C18.4189 20.5953 17.4652 21.6625 16.7451 22.8836C16.025 24.1047 15.5526 25.4557 15.3548 26.8595C15.157 28.2632 15.2378 29.6922 15.5926 31.0647L17.5042 38.4808H15.3057C13.4323 38.483 11.6362 39.2282 10.3115 40.5529C8.98674 41.8777 8.24153 43.6737 8.23931 45.5472V63.744H5.38867C4.07035 63.7456 2.8065 64.2701 1.87431 65.2023C0.942115 66.1345 0.417678 67.3983 0.416016 68.7166V88.6072C0.417678 89.9256 0.942115 91.1894 1.87431 92.1216C2.8065 93.0538 4.07035 93.5782 5.38867 93.5799H8.23722V112.254C8.23944 114.128 8.98464 115.924 10.3094 117.248C11.6341 118.573 13.4302 119.318 15.3036 119.32H32.6818C33.1676 119.32 33.6336 119.127 33.9772 118.784C34.3208 118.44 34.5138 117.974 34.5138 117.488C34.5138 117.003 34.3208 116.537 33.9772 116.193C33.6336 115.849 33.1676 115.656 32.6818 115.656H26.4005C25.4985 115.655 24.6337 115.296 23.9959 114.659C23.3581 114.021 22.9993 113.156 22.9982 112.254V93.5799H30.8497C34.8062 93.5799 38.6007 92.0082 41.3983 89.2105C44.196 86.4129 45.7677 82.6184 45.7677 78.6619C45.7677 74.7054 44.196 70.911 41.3983 68.1133C38.6007 65.3157 34.8062 63.744 30.8497 63.744H22.9982V45.5472C22.9993 44.6452 23.3581 43.7804 23.9959 43.1426C24.6337 42.5048 25.4985 42.1459 26.4005 42.1448H82.513V115.656H72.798C72.3121 115.656 71.8461 115.849 71.5026 116.193C71.159 116.537 70.966 117.003 70.966 117.488C70.966 117.974 71.159 118.44 71.5026 118.784C71.8461 119.127 72.3121 119.32 72.798 119.32H110.517C112.39 119.318 114.186 118.573 115.511 117.248C116.836 115.924 117.581 114.128 117.583 112.254V88.1655C117.583 87.6796 117.39 87.2136 117.047 86.87C116.703 86.5265 116.237 86.3334 115.751 86.3334C115.265 86.3334 114.799 86.5265 114.456 86.87C114.112 87.2136 113.919 87.6796 113.919 88.1655V112.254C113.918 113.156 113.559 114.021 112.922 114.659C112.284 115.296 111.419 115.655 110.517 115.656H86.1802V42.1448H110.517C111.419 42.1459 112.284 42.5048 112.922 43.1426C113.559 43.7804 113.918 44.6452 113.919 45.5472V76.2834C113.919 76.7693 114.112 77.2353 114.456 77.5789C114.799 77.9224 115.265 78.1155 115.751 78.1155ZM20.2103 115.656H15.3036C14.4016 115.655 13.5369 115.296 12.899 114.659C12.2612 114.021 11.9024 113.156 11.9013 112.254V93.5799H19.3341V112.254C19.3333 113.444 19.6348 114.615 20.2103 115.656ZM42.1005 78.6619C42.0972 81.6456 40.9104 84.5062 38.8006 86.616C36.6908 88.7258 33.8303 89.9125 30.8466 89.9158H21.186H21.1661H21.1452H10.0891H10.0693H10.0483H5.38867C5.0417 89.9156 4.70901 89.7776 4.46366 89.5322C4.21831 89.2869 4.08036 88.9542 4.08008 88.6072V68.7166C4.08063 68.3697 4.21868 68.0372 4.46397 67.7919C4.70926 67.5466 5.04178 67.4086 5.38867 67.408H30.8466C33.8303 67.4114 36.6908 68.5981 38.8006 70.7079C40.9104 72.8177 42.0972 75.6782 42.1005 78.6619ZM19.3341 45.5472V63.744H11.9013V45.5472C11.9024 44.6452 12.2612 43.7804 12.899 43.1426C13.5369 42.5048 14.4016 42.1459 15.3036 42.1448H20.2103C19.6349 43.1865 19.3334 44.3572 19.3341 45.5472ZM21.2876 38.4808L19.1404 30.1508C18.9054 29.2439 18.8515 28.2996 18.9818 27.3718C19.1121 26.4441 19.4241 25.5511 19.8998 24.7441C20.3756 23.937 21.0058 23.2317 21.7545 22.6685C22.5031 22.1053 23.3555 21.6952 24.2628 21.4617L89.817 4.52433C91.6485 4.05196 93.5926 4.32619 95.222 5.28673C96.8514 6.24727 98.0326 7.8155 98.5061 9.64669L105.953 38.4808H21.2876ZM62.7375 117.488C62.7375 117.974 62.5445 118.44 62.2009 118.784C61.8574 119.127 61.3914 119.32 60.9055 119.32H44.5638C44.0779 119.32 43.6119 119.127 43.2683 118.784C42.9248 118.44 42.7317 117.974 42.7317 117.488C42.7317 117.003 42.9248 116.537 43.2683 116.193C43.6119 115.849 44.0779 115.656 44.5638 115.656H60.9055C61.3914 115.656 61.8574 115.849 62.2009 116.193C62.5445 116.537 62.7375 117.003 62.7375 117.488ZM27.1626 86.4905C28.711 86.4907 30.2247 86.0317 31.5122 85.1716C32.7997 84.3115 33.8033 83.089 34.396 81.6585C34.9887 80.2281 35.1439 78.654 34.8419 77.1353C34.54 75.6167 33.7944 74.2216 32.6996 73.1267C31.6049 72.0317 30.2099 71.286 28.6913 70.9839C27.1727 70.6817 25.5986 70.8367 24.1681 71.4292C22.7375 72.0217 21.5148 73.0251 20.6546 74.3125C19.7943 75.5999 19.3351 77.1135 19.3351 78.6619C19.3374 80.7373 20.1627 82.7271 21.6301 84.1947C23.0976 85.6623 25.0872 86.488 27.1626 86.4905ZM27.1626 74.4985C27.9864 74.4983 28.7917 74.7424 29.4767 75.1999C30.1617 75.6574 30.6956 76.3078 31.0109 77.0688C31.3263 77.8298 31.4088 78.6672 31.2482 79.4752C31.0875 80.2831 30.6909 81.0252 30.1084 81.6077C29.5259 82.1902 28.7838 82.5868 27.9759 82.7475C27.1679 82.9081 26.3305 82.8256 25.5695 82.5102C24.8085 82.1949 24.1581 81.661 23.7006 80.976C23.2431 80.291 22.999 79.4857 22.9992 78.6619C23.0003 77.5581 23.4393 76.4997 24.2199 75.7192C25.0004 74.9386 26.0588 74.4996 27.1626 74.4985Z" fill="url(#paint0_linear_994:26820)"/>
<defs>
<linearGradient id="paint0_linear_994:26820" x1="51.8359" y1="148.125" x2="52.1095" y2="38.7119" gradientUnits="userSpaceOnUse">
<stop stop-color="#9D5EA6"/>
<stop offset="1" stop-color="#ED2377"/>
</linearGradient>
</defs>
</svg>
