<svg width="16" height="15" viewBox="0 0 16 15" fill="none" xmlns="http://www.w3.org/2000/svg">
<path d="M6.29147 3.79008L7.36729 0.777783C7.60127 0.122658 8.51725 0.094312 8.79128 0.733718L10.12 3.83414C10.2406 4.1155 10.5173 4.29793 10.8234 4.29793H14.8032C15.5077 4.29793 15.8379 5.16949 15.3102 5.63629L12.1894 8.39701C11.9797 8.58252 11.888 8.86773 11.9504 9.14067L12.8977 13.2851C13.0585 13.9883 12.2461 14.503 11.679 14.0573L8.51383 11.5704C8.22817 11.346 7.82409 11.3533 7.54677 11.588L4.65262 14.0369C4.10743 14.4982 3.28345 14.0273 3.40412 13.3234L4.12505 9.11799C4.16982 8.85683 4.0763 8.5911 3.87784 8.41555L0.736076 5.63629C0.208384 5.16949 0.538556 4.29793 1.24309 4.29793H5.57084C5.89423 4.29793 6.18271 4.09463 6.29147 3.79008Z" fill="#F4F3FE"/>
</svg>
