<svg width="16" height="15" viewBox="0 0 16 15" fill="none" xmlns="http://www.w3.org/2000/svg">
<path d="M6.09128 3.79008L7.1671 0.777783C7.40107 0.122658 8.31705 0.094312 8.59108 0.733718L9.91984 3.83414C10.0404 4.1155 10.3171 4.29793 10.6232 4.29793H14.603C15.3075 4.29793 15.6377 5.16949 15.11 5.63629L11.9892 8.39701C11.7795 8.58252 11.6878 8.86773 11.7502 9.14067L12.6975 13.2851C12.8583 13.9883 12.0459 14.503 11.4788 14.0573L8.31363 11.5704C8.02798 11.346 7.6239 11.3533 7.34658 11.588L4.45242 14.0369C3.90723 14.4982 3.08325 14.0273 3.20392 13.3234L3.92485 9.11799C3.96962 8.85683 3.87611 8.5911 3.67765 8.41555L0.53588 5.63629C0.0081889 5.16949 0.338361 4.29793 1.04289 4.29793H5.37064C5.69403 4.29793 5.98251 4.09463 6.09128 3.79008Z" fill="#FFB82E"/>
</svg>
