<svg width="41" height="40" viewBox="0 0 41 40" fill="none" xmlns="http://www.w3.org/2000/svg">
<rect y="0.34375" width="40.2389" height="38.6719" rx="9.17969" fill="white"/>
<g clip-path="url(#clip0_994_17598)">
<path d="M17.4414 29.7188C17.9484 29.7188 18.3594 29.3078 18.3594 28.8008C18.3594 28.2938 17.9484 27.8828 17.4414 27.8828C16.9344 27.8828 16.5234 28.2938 16.5234 28.8008C16.5234 29.3078 16.9344 29.7188 17.4414 29.7188Z" stroke="#C00AB5" stroke-width="1.83594" stroke-linecap="round" stroke-linejoin="round"/>
<path d="M27.5391 29.7188C28.046 29.7188 28.457 29.3078 28.457 28.8008C28.457 28.2938 28.046 27.8828 27.5391 27.8828C27.0321 27.8828 26.6211 28.2938 26.6211 28.8008C26.6211 29.3078 27.0321 29.7188 27.5391 29.7188Z" stroke="#C00AB5" stroke-width="1.83594" stroke-linecap="round" stroke-linejoin="round"/>
<path d="M10.0977 10.4414H13.7695L16.2297 22.733C16.3136 23.1556 16.5435 23.5353 16.8792 23.8055C17.2148 24.0757 17.6348 24.2192 18.0656 24.2109H26.9883C27.4191 24.2192 27.8391 24.0757 28.1747 23.8055C28.5104 23.5353 28.7403 23.1556 28.8242 22.733L30.293 15.0312H14.6875" stroke="#C00AB5" stroke-width="1.83594" stroke-linecap="round" stroke-linejoin="round"/>
</g>
<defs>
<clipPath id="clip0_994_17598">
<rect width="22.0312" height="22.0312" fill="white" transform="translate(9.17969 9.52344)"/>
</clipPath>
</defs>
</svg>
