<svg width="41" height="40" viewBox="0 0 41 40" fill="none" xmlns="http://www.w3.org/2000/svg">
<rect y="0.671875" width="40.2389" height="38.6719" rx="9.17969" fill="white"/>
<path d="M21.1883 13.1912C22.1211 12.7504 22.933 12.6055 24.1973 12.6055C27.4289 12.6184 29.834 15.2645 29.834 18.6483C29.834 21.2345 28.344 23.727 25.5708 26.1353C24.1168 27.398 22.2605 28.6475 20.9322 29.3116L20.1953 29.68L19.4584 29.3116C18.1302 28.6475 16.2738 27.398 14.8198 26.1353C12.0467 23.727 10.5566 21.2345 10.5566 18.6483C10.5566 15.2285 12.9392 12.6055 16.1999 12.6055C17.4186 12.6055 18.2725 12.7641 19.2236 13.2183C19.5666 13.3821 19.8882 13.5775 20.1868 13.8042C20.4968 13.5645 20.8313 13.3599 21.1883 13.1912Z" stroke="#C00AB5" stroke-width="1.61661"/>
</svg>
