<svg width="101" height="40" viewBox="0 0 101 40" fill="none" xmlns="http://www.w3.org/2000/svg">
<path d="M0 4C0 1.79086 1.79086 0 4 0H97C99.2091 0 101 1.79086 101 4V36C101 38.2091 99.2091 40 97 40H4C1.79086 40 0 38.2091 0 36V4Z" fill="white"/>
<path d="M38 20L26 20" stroke="#C00AB5" stroke-width="1.5" stroke-linecap="round" stroke-linejoin="round"/>
<path d="M30.9998 25L26 20L30.9999 15" stroke="#C00AB5" stroke-width="1.5" stroke-linecap="round" stroke-linejoin="round"/>
<path d="M47.5354 25V15.13H51.4834C52.5007 15.13 53.2847 15.3587 53.8354 15.816C54.3954 16.264 54.6754 16.894 54.6754 17.706C54.6754 18.2473 54.5354 18.7093 54.2554 19.092C53.9754 19.4747 53.588 19.7547 53.0934 19.932C53.6627 20.0813 54.106 20.3567 54.4234 20.758C54.75 21.1593 54.9134 21.668 54.9134 22.284C54.9134 23.1613 54.6287 23.8333 54.0594 24.3C53.49 24.7667 52.6874 25 51.6514 25H47.5354ZM48.6554 19.54H51.3154C52.7994 19.54 53.5414 18.9613 53.5414 17.804C53.5414 16.6373 52.7994 16.054 51.3154 16.054H48.6554V19.54ZM48.6554 24.076H51.5394C53.0327 24.076 53.7794 23.474 53.7794 22.27C53.7794 21.066 53.0327 20.464 51.5394 20.464H48.6554V24.076ZM58.9843 25.126C58.5177 25.126 58.0977 25.0373 57.7243 24.86C57.3603 24.6733 57.071 24.4213 56.8563 24.104C56.6417 23.7867 56.5343 23.432 56.5343 23.04C56.5343 22.5453 56.6603 22.1533 56.9123 21.864C57.1737 21.5747 57.5983 21.3693 58.1863 21.248C58.7837 21.1173 59.5957 21.052 60.6223 21.052H61.0703V20.618C61.0703 20.0393 60.949 19.624 60.7063 19.372C60.473 19.1107 60.095 18.98 59.5723 18.98C59.1617 18.98 58.765 19.0407 58.3823 19.162C57.9997 19.274 57.6077 19.4607 57.2063 19.722L56.8143 18.896C57.169 18.644 57.5983 18.4433 58.1023 18.294C58.6157 18.1447 59.1057 18.07 59.5723 18.07C60.4497 18.07 61.0983 18.2847 61.5183 18.714C61.9477 19.1433 62.1623 19.8107 62.1623 20.716V25H61.0983V23.824C60.921 24.2253 60.6457 24.5427 60.2723 24.776C59.9083 25.0093 59.479 25.126 58.9843 25.126ZM59.1663 24.272C59.7263 24.272 60.1837 24.0807 60.5383 23.698C60.893 23.306 61.0703 22.8113 61.0703 22.214V21.794H60.6363C59.8803 21.794 59.283 21.8313 58.8443 21.906C58.415 21.9713 58.1117 22.0927 57.9343 22.27C57.7663 22.438 57.6823 22.6713 57.6823 22.97C57.6823 23.3527 57.813 23.6653 58.0743 23.908C58.345 24.1507 58.709 24.272 59.1663 24.272ZM67.1501 25.126C66.4688 25.126 65.8808 24.9813 65.3861 24.692C64.8915 24.3933 64.5088 23.978 64.2381 23.446C63.9768 22.9047 63.8461 22.2747 63.8461 21.556C63.8461 20.4733 64.1401 19.624 64.7281 19.008C65.3161 18.3827 66.1235 18.07 67.1501 18.07C67.5701 18.07 67.9855 18.1447 68.3961 18.294C68.8068 18.4433 69.1475 18.6533 69.4181 18.924L69.0261 19.75C68.7555 19.4887 68.4568 19.2973 68.1301 19.176C67.8128 19.0547 67.5095 18.994 67.2201 18.994C66.5108 18.994 65.9648 19.218 65.5821 19.666C65.1995 20.1047 65.0081 20.7393 65.0081 21.57C65.0081 22.382 65.1995 23.026 65.5821 23.502C65.9648 23.9687 66.5108 24.202 67.2201 24.202C67.5095 24.202 67.8128 24.1413 68.1301 24.02C68.4568 23.8987 68.7555 23.7027 69.0261 23.432L69.4181 24.258C69.1475 24.5287 68.8021 24.7433 68.3821 24.902C67.9715 25.0513 67.5608 25.126 67.1501 25.126ZM70.7466 25V15.13H71.8806V21.22H71.9086L75.0586 18.196H76.5006L73.0846 21.472L76.7946 25H75.3526L71.9086 21.808H71.8806V25H70.7466Z" fill="#C00AB5"/>
</svg>
