<svg width="42" height="42" viewBox="0 0 42 42" fill="none" xmlns="http://www.w3.org/2000/svg">
<rect x="0.131104" y="0.574219" width="41.007" height="41.007" rx="10" fill="#F4F3FE"/>
<path d="M12.7571 15.8262H14.5077H28.5123" stroke="#C00AB5" stroke-width="1.75058" stroke-linecap="round" stroke-linejoin="round"/>
<path d="M17.1334 15.8264V14.0758C17.1334 13.6115 17.3179 13.1662 17.6462 12.8379C17.9745 12.5096 18.4197 12.3252 18.884 12.3252H22.3852C22.8495 12.3252 23.2947 12.5096 23.623 12.8379C23.9513 13.1662 24.1358 13.6115 24.1358 14.0758V15.8264M26.7616 15.8264V28.0804C26.7616 28.5447 26.5772 28.99 26.2489 29.3183C25.9206 29.6466 25.4753 29.831 25.0111 29.831H16.2581C15.7939 29.831 15.3486 29.6466 15.0203 29.3183C14.692 28.99 14.5076 28.5447 14.5076 28.0804V15.8264H26.7616Z" stroke="#C00AB5" stroke-width="1.75058" stroke-linecap="round" stroke-linejoin="round"/>
<path d="M18.884 20.2021V25.4539" stroke="#C00AB5" stroke-width="1.75058" stroke-linecap="round" stroke-linejoin="round"/>
<path d="M22.3853 20.2021V25.4539" stroke="#C00AB5" stroke-width="1.75058" stroke-linecap="round" stroke-linejoin="round"/>
</svg>
