<svg width="42" height="42" viewBox="0 0 42 42" fill="none" xmlns="http://www.w3.org/2000/svg">
<rect x="0.371338" y="0.574219" width="41.007" height="41.007" rx="10" fill="#F4F3FE"/>
<path d="M21.8217 13.7587C22.7111 13.3384 23.4853 13.2002 24.6908 13.2002C27.7722 13.2125 30.0654 15.7356 30.0654 18.962C30.0654 21.4281 28.6447 23.8047 26.0005 26.101C24.6141 27.305 22.844 28.4964 21.5775 29.1296L20.8749 29.4809L20.1722 29.1296C18.9057 28.4964 17.1357 27.305 15.7493 26.101C13.1051 23.8047 11.6843 21.4281 11.6843 18.962C11.6843 15.7012 13.9561 13.2002 17.0652 13.2002C18.2273 13.2002 19.0415 13.3515 19.9484 13.7846C20.2754 13.9407 20.5821 14.1271 20.8667 14.3432C21.1623 14.1146 21.4813 13.9196 21.8217 13.7587Z" stroke="#C00AB5" stroke-width="1.54145"/>
</svg>
