<svg width="40" height="42" viewBox="0 0 40 42" fill="none" xmlns="http://www.w3.org/2000/svg">
<g clip-path="url(#clip0)">
<path d="M14.9997 38.5C15.9201 38.5 16.6663 37.7165 16.6663 36.75C16.6663 35.7835 15.9201 35 14.9997 35C14.0792 35 13.333 35.7835 13.333 36.75C13.333 37.7165 14.0792 38.5 14.9997 38.5Z" stroke="#C00AB5" stroke-width="1.69809" stroke-linecap="round" stroke-linejoin="round"/>
<path d="M33.3337 38.5C34.2541 38.5 35.0003 37.7165 35.0003 36.75C35.0003 35.7835 34.2541 35 33.3337 35C32.4132 35 31.667 35.7835 31.667 36.75C31.667 37.7165 32.4132 38.5 33.3337 38.5Z" stroke="#C00AB5" stroke-width="1.69809" stroke-linecap="round" stroke-linejoin="round"/>
<path d="M1.66699 1.75L8.33366 1.75L12.8003 25.1825C12.9527 25.9882 13.3702 26.7119 13.9796 27.227C14.589 27.7421 15.3515 28.0157 16.1337 28L32.3337 28C33.1158 28.0157 33.8784 27.7421 34.4877 27.227C35.0971 26.7119 35.5146 25.9882 35.667 25.1825L38.3337 10.5L10.0003 10.5" stroke="#C00AB5" stroke-width="1.69809" stroke-linecap="round" stroke-linejoin="round"/>
</g>
<defs>
<clipPath id="clip0">
<rect width="40" height="42" fill="white"/>
</clipPath>
</defs>
</svg>
