<svg width="32" height="32" viewBox="0 0 32 32" fill="none" xmlns="http://www.w3.org/2000/svg">
<path d="M21.3333 4H1.33325V21.3333H21.3333V4Z" stroke="#C00AB5" stroke-width="2" stroke-linecap="round" stroke-linejoin="round"/>
<path d="M21.3333 10.6667H26.6666L30.6666 14.6667V21.3334H21.3333V10.6667Z" stroke="#C00AB5" stroke-width="2" stroke-linecap="round" stroke-linejoin="round"/>
<path d="M7.33333 27.9999C9.17428 27.9999 10.6667 26.5075 10.6667 24.6666C10.6667 22.8256 9.17428 21.3333 7.33333 21.3333C5.49238 21.3333 4 22.8256 4 24.6666C4 26.5075 5.49238 27.9999 7.33333 27.9999Z" stroke="#C00AB5" stroke-width="2" stroke-linecap="round" stroke-linejoin="round"/>
<path d="M24.6666 27.9999C26.5075 27.9999 27.9999 26.5075 27.9999 24.6666C27.9999 22.8256 26.5075 21.3333 24.6666 21.3333C22.8256 21.3333 21.3333 22.8256 21.3333 24.6666C21.3333 26.5075 22.8256 27.9999 24.6666 27.9999Z" stroke="#C00AB5" stroke-width="2" stroke-linecap="round" stroke-linejoin="round"/>
</svg>
