<svg width="20" height="21" viewBox="0 0 20 21" fill="none" xmlns="http://www.w3.org/2000/svg">
<path d="M2.54492 5.52344H4.17682H17.232" stroke="#C00AB5" stroke-width="1.6319" stroke-linecap="round" stroke-linejoin="round"/>
<path d="M6.6246 5.52356V3.89166C6.6246 3.45886 6.79653 3.04378 7.10257 2.73774C7.40861 2.4317 7.82369 2.25977 8.2565 2.25977H11.5203C11.9531 2.25977 12.3682 2.4317 12.6742 2.73774C12.9802 3.04378 13.1522 3.45886 13.1522 3.89166V5.52356M15.6 5.52356V16.9468C15.6 17.3796 15.4281 17.7947 15.1221 18.1007C14.816 18.4068 14.4009 18.5787 13.9681 18.5787H5.80865C5.37585 18.5787 4.96077 18.4068 4.65473 18.1007C4.34869 17.7947 4.17676 17.3796 4.17676 16.9468V5.52356H15.6Z" stroke="#C00AB5" stroke-width="1.6319" stroke-linecap="round" stroke-linejoin="round"/>
<path d="M8.25586 9.60352V14.4992" stroke="#C00AB5" stroke-width="1.6319" stroke-linecap="round" stroke-linejoin="round"/>
<path d="M11.5195 9.60352V14.4992" stroke="#C00AB5" stroke-width="1.6319" stroke-linecap="round" stroke-linejoin="round"/>
</svg>
