<svg width="37" height="37" viewBox="0 0 37 37" fill="none" xmlns="http://www.w3.org/2000/svg">
<rect width="37" height="37" fill="#E5E5E5"/>
<g clip-path="url(#clip0_328_11656)">
<rect width="375" height="4817" transform="translate(-28 -4685)" fill="white"/>
<rect width="375" height="1795" transform="translate(-28 -1663)" fill="#FCFCFF"/>
<path d="M22.3814 16.0989H20.244H19.6317L19.6336 15.4866L19.6383 13.9309C19.6383 13.9306 19.6383 13.9303 19.6383 13.93L19.6383 13.9291L20.2487 13.9309C20.2487 13.1194 20.3284 12.6831 21.4902 12.6831L22.3814 16.0989ZM22.3814 16.0989L22.1823 17.9881H20.244H19.6336V18.5986V27.004H17.1301V18.594V17.9835H16.5196H15.2655V16.0944H16.5196H17.1301V15.4839V13.6167C17.1301 12.4155 17.3809 11.5868 17.8679 11.0557C18.3451 10.5352 19.1582 10.1834 20.558 10.1834H22.4351V12.0726L22.3814 16.0989Z" fill="#C5C0DB" stroke="#C5C0DB" stroke-width="1.22093"/>
<path d="M18.8611 35.4767C28.1747 35.4767 35.7221 27.9195 35.7221 18.5938C35.7221 9.27289 28.1747 1.71095 18.8611 1.71095C9.54742 1.71095 2 9.2682 2 18.5938C2.00468 27.9148 9.5521 35.4767 18.8611 35.4767Z" stroke="#C5C0DB" stroke-width="2.44186"/>
</g>
<defs>
<clipPath id="clip0_328_11656">
<rect width="375" height="4817" fill="white" transform="translate(-28 -4685)"/>
</clipPath>
</defs>
</svg>
