<svg width="196" height="38" viewBox="0 0 196 38" fill="none" xmlns="http://www.w3.org/2000/svg">
<path d="M22.3817 16.5113H20.2443H19.632L19.6338 15.899L19.6385 14.3433C19.6385 14.343 19.6385 14.3427 19.6385 14.3424L19.6385 14.3415L20.249 14.3433C20.249 13.5318 20.3286 13.0954 21.4905 13.0954L22.3817 16.5113ZM22.3817 16.5113L22.1825 18.4005H20.2443H19.6338V19.0109V27.4164H17.1303V19.0063V18.3959H16.5198H15.2657V16.5067H16.5198H17.1303V15.8963V14.029C17.1303 12.8279 17.3812 11.9992 17.8681 11.468C18.3454 10.9475 19.1584 10.5958 20.5582 10.5958H22.4354V12.485L22.3817 16.5113Z" fill="#C5C0DB" stroke="#C5C0DB" stroke-width="1.22093"/>
<path d="M18.8611 35.8888C28.1747 35.8888 35.7221 28.3316 35.7221 19.0059C35.7221 9.68499 28.1747 2.12305 18.8611 2.12305C9.54742 2.12305 2 9.6803 2 19.0059C2.00468 28.3269 9.5521 35.8888 18.8611 35.8888Z" stroke="#C5C0DB" stroke-width="2.44186"/>
<path d="M77.2439 11.2178L77.2439 11.2178C77.7525 11.417 78.1331 11.6652 78.5167 12.0493C78.9002 12.4333 79.1478 12.8142 79.3467 13.3231L79.3478 13.3258C79.4973 13.714 79.6612 14.2667 79.7064 15.2389L79.7065 15.2409C79.7493 16.2299 79.7586 16.5356 79.7586 19.0104C79.7586 21.4852 79.7493 21.7913 79.7065 22.7803L79.7064 22.7824C79.6612 23.7546 79.4973 24.3069 79.3478 24.6949L79.3467 24.6977C79.1478 25.2066 78.9002 25.5874 78.5167 25.9715C78.1331 26.3555 77.7525 26.6038 77.2439 26.803C76.8579 26.9543 76.3005 27.1179 75.3312 27.1632C75.3309 27.1632 75.3306 27.1632 75.3303 27.1632L77.2439 11.2178ZM77.2439 11.2178L77.2412 11.2167C76.8534 11.0669 76.3017 10.9029 75.3308 10.8575C74.3416 10.8099 74.0344 10.8005 71.5633 10.8005C69.0922 10.8005 68.785 10.8099 67.7958 10.8575C66.8249 10.9029 66.2732 11.0669 65.8854 11.2167L65.8854 11.2167L65.8826 11.2178C65.3741 11.417 64.9934 11.6652 64.6099 12.0493C64.2263 12.4333 63.9788 12.8142 63.7799 13.3231L63.7799 13.3231L63.7788 13.3258C63.6292 13.7143 63.4654 14.2717 63.4201 15.2387H63.4201L63.42 15.2409C63.3773 16.2299 63.3679 16.5355 63.3679 19.0104C63.3679 21.4852 63.3773 21.7913 63.42 22.7803L63.4201 22.7824C63.4654 23.7546 63.6293 24.3069 63.7788 24.6949L63.7799 24.6977C63.9788 25.2066 64.2263 25.5874 64.6099 25.9715C64.9934 26.3555 65.3741 26.6038 65.8826 26.803L65.8854 26.8041C66.2731 26.9538 66.8247 27.1178 67.7954 27.1632L77.2439 11.2178ZM65.725 10.7988L65.725 10.7988C65.1923 11.0039 64.7503 11.2771 64.2979 11.7301C63.8475 12.181 63.5777 12.6237 63.3665 13.1624C63.1641 13.6838 63.0207 14.288 62.9765 15.216L65.725 10.7988ZM65.725 10.7988L65.7287 10.7973M65.725 10.7988L65.7287 10.7973M65.7287 10.7973C66.243 10.5955 66.8507 10.4516 67.7788 10.4073C68.7476 10.3611 69.0544 10.3517 71.5633 10.3517C74.0448 10.3517 74.3678 10.3655 75.3221 10.4062L75.3478 10.4073C75.3483 10.4074 75.3488 10.4074 75.3492 10.4074C76.2751 10.4517 76.8783 10.5952 77.3985 10.7976C77.9362 11.0089 78.3783 11.2792 78.8287 11.7301C79.2792 12.1813 79.5492 12.6242 79.7604 13.1633L65.7287 10.7973ZM77.3978 27.2143L77.4015 27.2128C77.9342 27.0077 78.3763 26.7344 78.8287 26.2815C79.2791 25.8305 79.549 25.3877 79.7602 24.8488C79.9625 24.3276 80.1059 23.723 80.15 22.7952C80.15 22.7951 80.15 22.7951 80.15 22.7951L80.7598 22.8241C80.8067 21.8343 80.816 21.5201 80.816 19.0058C80.816 16.4915 80.8067 16.1722 80.7598 15.1871L77.3978 27.2143ZM77.3978 27.2143C76.8835 27.4161 76.2759 27.56 75.3478 27.6043C74.3743 27.6505 74.072 27.6599 71.5633 27.6599C69.0546 27.6599 68.7523 27.6505 67.7788 27.6043C66.8521 27.5601 66.2484 27.4165 65.7279 27.214C65.1902 27.0026 64.7482 26.7324 64.2979 26.2815C63.8473 25.8303 63.5774 25.3874 63.3662 24.8483C63.1645 24.3331 63.0207 23.7245 62.9765 22.7951C62.9304 21.825 62.921 21.518 62.921 19.0058C62.921 16.4938 62.9304 16.1909 62.9765 15.2161L77.3978 27.2143Z" fill="#C5C0DB" stroke="#C5C0DB" stroke-width="1.22093"/>
<path d="M67.423 19.005C67.423 16.7144 69.2774 14.8585 71.5631 14.8585C73.8487 14.8585 75.7031 16.7144 75.7031 19.005C75.7031 21.2955 73.8488 23.1511 71.5631 23.1511C69.2773 23.1511 67.423 21.2955 67.423 19.005ZM67.8699 19.005C67.8699 21.0436 69.5192 22.7022 71.5631 22.7022C73.6016 22.7022 75.2562 21.0442 75.2562 19.005C75.2562 16.9658 73.6016 15.3078 71.5631 15.3078C69.5251 15.3078 67.8699 16.9605 67.8699 19.005Z" fill="#C5C0DB" stroke="#C5C0DB" stroke-width="1.22093"/>
<path d="M77.0007 14.062C77.0007 14.3402 76.7766 14.5634 76.5009 14.5634C76.2252 14.5634 76.0011 14.3402 76.0011 14.062C76.0011 13.7838 76.2252 13.5607 76.5009 13.5607C76.7766 13.5607 77.0007 13.7838 77.0007 14.062Z" fill="#C5C0DB" stroke="#C5C0DB" stroke-width="1.22093"/>
<path d="M71.5612 35.8888C80.8749 35.8888 88.4223 28.3316 88.4223 19.0059C88.4223 9.68499 80.8749 2.12305 71.5612 2.12305C62.2476 2.12305 54.7002 9.6803 54.7002 19.0059C54.7002 28.3269 62.2476 35.8888 71.5612 35.8888Z" stroke="#C5C0DB" stroke-width="2.44186"/>
<path d="M121.034 22.1766C120.159 22.16 119.38 21.7365 118.882 21.0865C119.108 21.0657 119.331 21.0256 119.552 20.9642L119.508 19.7776C118.536 19.583 117.746 18.8757 117.432 17.9482C117.677 18.0034 117.929 18.0363 118.186 18.045L120.325 18.1176L118.547 16.9275C117.805 16.4311 117.314 15.5814 117.314 14.6159C117.314 14.4245 117.333 14.2374 117.371 14.0564C119.11 15.8064 121.479 16.9327 124.108 17.0643L124.926 17.1053L124.731 16.3093C124.683 16.1138 124.66 15.9053 124.66 15.6809C124.66 14.1468 125.904 12.9044 127.437 12.9044C128.23 12.9044 128.953 13.242 129.461 13.7821L129.692 14.0269L130.022 13.9628C130.101 13.9474 130.18 13.9307 130.259 13.9127L130.637 15.0131C130.58 15.0575 130.522 15.1008 130.463 15.1432L130.198 15.3332L130.209 15.6584C130.214 15.8055 130.218 15.9409 130.218 16.0749C130.218 20.2882 127.019 25.1036 121.201 25.1036C120.237 25.1036 119.311 24.951 118.442 24.6694C119.538 24.4255 120.546 23.9389 121.4 23.2668L122.745 22.2091L121.034 22.1766Z" fill="#C5C0DB" stroke="#C5C0DB" stroke-width="1.22093"/>
<path d="M124.257 35.8888C133.57 35.8888 141.118 28.3316 141.118 19.0059C141.118 9.68499 133.57 2.12305 124.257 2.12305C114.943 2.12305 107.396 9.6803 107.396 19.0059C107.4 28.3269 114.948 35.8888 124.257 35.8888Z" stroke="#C5C0DB" stroke-width="2.44186"/>
<path d="M172.81 12.0238C172.808 12.3244 172.699 12.573 172.52 12.7474C172.34 12.9221 172.054 13.0572 171.64 13.0572C170.938 13.0572 170.536 12.5899 170.536 12.0162C170.536 11.705 170.649 11.4539 170.83 11.2796C171.01 11.1053 171.291 10.9757 171.683 10.9757C172.073 10.9757 172.341 11.1034 172.512 11.2729C172.685 11.4434 172.8 11.6972 172.81 12.0238ZM170.621 15.5819H172.698V24.986H170.621V15.5819Z" fill="#C5C0DB" stroke="#C5C0DB" stroke-width="1.22093"/>
<path d="M175.889 18.9695H175.894V18.359C175.894 17.3053 175.868 16.3893 175.833 15.5781H177.505L177.599 16.5069L177.655 17.0558H178.207H178.272H178.61L178.789 16.7698C179.144 16.2054 180.033 15.339 181.547 15.339C182.491 15.339 183.263 15.6511 183.806 16.2548C184.356 16.8653 184.736 17.8481 184.736 19.3109V24.9812H182.659V19.7053C182.659 18.9671 182.533 18.251 182.169 17.7023C181.777 17.113 181.16 16.7917 180.376 16.7917C179.124 16.7917 178.412 17.6667 178.118 18.4129C177.98 18.7523 177.966 19.167 177.966 19.4657V24.9812H175.889V18.9695Z" fill="#C5C0DB" stroke="#C5C0DB" stroke-width="1.22093"/>
<path d="M176.961 35.8888C186.274 35.8888 193.822 28.3316 193.822 19.0059C193.822 9.68499 186.274 2.12305 176.961 2.12305C167.647 2.12305 160.1 9.6803 160.1 19.0059C160.1 28.3269 167.647 35.8888 176.961 35.8888Z" stroke="#C5C0DB" stroke-width="2.44186"/>
</svg>
