<svg width="37" height="37" viewBox="0 0 37 37" fill="none" xmlns="http://www.w3.org/2000/svg">
<rect width="37" height="37" fill="#E5E5E5"/>
<g clip-path="url(#clip0_328_11656)">
<rect width="375" height="4817" transform="translate(-81 -4685)" fill="white"/>
<rect width="375" height="1795" transform="translate(-81 -1663)" fill="#FCFCFF"/>
<path d="M24.2437 10.8061L24.2437 10.8061C24.7522 11.0053 25.1329 11.2535 25.5164 11.6375C25.9 12.0216 26.1476 12.4025 26.3464 12.9114L26.3475 12.9141C26.497 13.3023 26.6609 13.855 26.7062 14.8272L26.7063 14.8292C26.749 15.8182 26.7584 16.1239 26.7584 18.5987C26.7584 21.0735 26.749 21.3796 26.7063 22.3686L26.7062 22.3707C26.6609 23.3429 26.497 23.8952 26.3475 24.2832L26.3464 24.286C26.1476 24.7949 25.9 25.1757 25.5164 25.5598C25.1329 25.9438 24.7522 26.192 24.2437 26.3913C23.8576 26.5425 23.3002 26.7062 22.331 26.7515C22.3307 26.7515 22.3304 26.7515 22.3301 26.7515L24.2437 10.8061ZM24.2437 10.8061L24.2409 10.805C23.8531 10.6552 23.3014 10.4912 22.3305 10.4458C21.3413 10.3982 21.0341 10.3888 18.563 10.3888C16.092 10.3888 15.7847 10.3982 14.7955 10.4458C13.8246 10.4912 13.2729 10.6552 12.8852 10.805L12.8851 10.805L12.8824 10.8061C12.3739 11.0053 11.9932 11.2535 11.6097 11.6375C11.2261 12.0216 10.9785 12.4025 10.7796 12.9114L10.7796 12.9113L10.7786 12.9141C10.6289 13.3026 10.4652 13.86 10.4199 14.827H10.4199L10.4198 14.8292C10.3771 15.8182 10.3676 16.1238 10.3676 18.5987C10.3676 21.0735 10.3771 21.3796 10.4198 22.3686L10.4199 22.3707C10.4652 23.3429 10.6291 23.8952 10.7786 24.2832L10.7796 24.286C10.9785 24.7949 11.2261 25.1757 11.6097 25.5598C11.9932 25.9438 12.3739 26.192 12.8824 26.3913L12.8852 26.3924C13.2729 26.5421 13.8245 26.7061 14.7951 26.7515L24.2437 10.8061ZM12.7248 10.3871L12.7248 10.3871C12.1921 10.5922 11.75 10.8654 11.2976 11.3184C10.8473 11.7693 10.5775 12.212 10.3663 12.7507C10.1639 13.2721 10.0204 13.8763 9.9763 14.8042L12.7248 10.3871ZM12.7248 10.3871L12.7284 10.3856M12.7248 10.3871L12.7284 10.3856M12.7284 10.3856C13.2428 10.1838 13.8504 10.0399 14.7786 9.99562C15.7474 9.94943 16.0541 9.93997 18.563 9.93997C21.0446 9.93997 21.3676 9.95377 22.3218 9.99453L22.3475 9.99562C22.348 9.99565 22.3485 9.99567 22.349 9.9957C23.2749 10.04 23.8781 10.1835 24.3983 10.3859C24.936 10.5972 25.378 10.8675 25.8284 11.3184C26.279 11.7696 26.5489 12.2125 26.7601 12.7516L12.7284 10.3856ZM24.3976 26.8025L24.4012 26.8011C24.934 26.596 25.376 26.3227 25.8284 25.8698C26.2788 25.4188 26.5488 24.976 26.7599 24.4371C26.9623 23.9159 27.1056 23.3113 27.1498 22.3835C27.1498 22.3834 27.1498 22.3834 27.1498 22.3833L27.7596 22.4123C27.8064 21.4226 27.8158 21.1084 27.8158 18.5941C27.8158 16.0798 27.8064 15.7605 27.7596 14.7754L24.3976 26.8025ZM24.3976 26.8025C23.8832 27.0044 23.2756 27.1483 22.3475 27.1926C21.374 27.2388 21.0718 27.2482 18.563 27.2482C16.0543 27.2482 15.7521 27.2388 14.7786 27.1926C13.8518 27.1484 13.2482 27.0048 12.7277 26.8022C12.19 26.5909 11.748 26.3207 11.2976 25.8698C10.8471 25.4186 10.5772 24.9757 10.3659 24.4366C10.1643 23.9214 10.0205 23.3128 9.9763 22.3833C9.93016 21.4133 9.92077 21.1063 9.92077 18.5941C9.92077 16.0821 9.93016 15.7792 9.9763 14.8044L24.3976 26.8025Z" fill="#C5C0DB" stroke="#C5C0DB" stroke-width="1.22093"/>
<path d="M14.423 18.5933C14.423 16.3027 16.2774 14.4468 18.5631 14.4468C20.8487 14.4468 22.7031 16.3027 22.7031 18.5933C22.7031 20.8838 20.8488 22.7393 18.5631 22.7393C16.2773 22.7393 14.423 20.8838 14.423 18.5933ZM14.8699 18.5933C14.8699 20.6319 16.5192 22.2905 18.5631 22.2905C20.6016 22.2905 22.2562 20.6325 22.2562 18.5933C22.2562 16.554 20.6016 14.8961 18.5631 14.8961C16.5251 14.8961 14.8699 16.5487 14.8699 18.5933Z" fill="#C5C0DB" stroke="#C5C0DB" stroke-width="1.22093"/>
<path d="M24.0002 13.6502C24.0002 13.9284 23.7761 14.1516 23.5004 14.1516C23.2247 14.1516 23.0006 13.9284 23.0006 13.6502C23.0006 13.372 23.2247 13.1489 23.5004 13.1489C23.7761 13.1489 24.0002 13.372 24.0002 13.6502Z" fill="#C5C0DB" stroke="#C5C0DB" stroke-width="1.22093"/>
<path d="M18.561 35.4767C27.8746 35.4767 35.4221 27.9194 35.4221 18.5938C35.4221 9.27285 27.8746 1.71091 18.561 1.71091C9.24737 1.71091 1.69995 9.26816 1.69995 18.5938C1.69995 27.9147 9.24737 35.4767 18.561 35.4767Z" stroke="#C5C0DB" stroke-width="2.44186"/>
</g>
<defs>
<clipPath id="clip0_328_11656">
<rect width="375" height="4817" fill="white" transform="translate(-81 -4685)"/>
</clipPath>
</defs>
</svg>
