<svg width="38" height="37" viewBox="0 0 38 37" fill="none" xmlns="http://www.w3.org/2000/svg">
<rect width="38" height="37" fill="#E5E5E5"/>
<g clip-path="url(#clip0_328_11656)">
<rect width="375" height="4817" transform="translate(-186 -4685)" fill="white"/>
<rect width="375" height="1795" transform="translate(-186 -1663)" fill="#FCFCFF"/>
<path d="M14.8097 11.6118C14.8079 11.9125 14.6982 12.1611 14.519 12.3354C14.3394 12.5101 14.0533 12.6452 13.6399 12.6452C12.9379 12.6452 12.5358 12.178 12.5358 11.6043C12.5358 11.293 12.6489 11.0419 12.8292 10.8676C13.0094 10.6934 13.2909 10.5637 13.6821 10.5637C14.0724 10.5637 14.3405 10.6914 14.5118 10.8609C14.6842 11.0315 14.7998 11.2852 14.8097 11.6118ZM12.6201 15.1699H14.6972V24.574H12.6201V15.1699Z" fill="#C5C0DB" stroke="#C5C0DB" stroke-width="1.22093"/>
<path d="M17.8887 18.5571H17.8934V17.9466C17.8934 16.8929 17.867 15.9768 17.8329 15.1656H19.5047L19.5989 16.0945L19.6546 16.6433H20.2063H20.2719H20.6095L20.7889 16.3574C21.1432 15.793 22.0323 14.9265 23.5466 14.9265C24.4903 14.9265 25.2629 15.2386 25.8059 15.8423C26.3551 16.4529 26.7356 17.4356 26.7356 18.8984V24.5688H24.6584V19.2928C24.6584 18.5546 24.5327 17.8385 24.1681 17.2898C23.7766 16.7005 23.1592 16.3793 22.3754 16.3793C21.1236 16.3793 20.4115 17.2543 20.1176 18.0005C19.9793 18.3398 19.9659 18.7546 19.9659 19.0533V24.5688H17.8887V18.5571Z" fill="#C5C0DB" stroke="#C5C0DB" stroke-width="1.22093"/>
<path d="M18.9609 35.4769C28.2745 35.4769 35.822 27.9196 35.822 18.594C35.822 9.27306 28.2745 1.71112 18.9609 1.71112C9.64727 1.71112 2.09985 9.26837 2.09985 18.594C2.09985 27.9149 9.64727 35.4769 18.9609 35.4769Z" stroke="#C5C0DB" stroke-width="2.44186"/>
</g>
<defs>
<clipPath id="clip0_328_11656">
<rect width="375" height="4817" fill="white" transform="translate(-186 -4685)"/>
</clipPath>
</defs>
</svg>
