<svg width="37" height="37" viewBox="0 0 37 37" fill="none" xmlns="http://www.w3.org/2000/svg">
<rect width="37" height="37" fill="#E5E5E5"/>
<g clip-path="url(#clip0_328_11656)">
<rect width="375" height="4817" transform="translate(-134 -4685)" fill="white"/>
<rect width="375" height="1795" transform="translate(-134 -1663)" fill="#FCFCFF"/>
<path d="M15.0347 21.7643C14.1591 21.7476 13.3804 21.3242 12.8821 20.6742C13.1086 20.6534 13.3317 20.6133 13.5521 20.5518L13.5079 19.3652C12.5362 19.1707 11.7466 18.4633 11.4324 17.5359C11.677 17.591 11.9295 17.6239 12.1867 17.6327L14.3252 17.7052L12.5469 16.5152C11.8051 16.0188 11.314 15.169 11.314 14.2036C11.314 14.0122 11.3337 13.8251 11.371 13.6441C13.1099 15.394 15.4796 16.5204 18.1081 16.652L18.9265 16.6929L18.7315 15.897C18.6836 15.7014 18.6601 15.493 18.6601 15.2686C18.6601 13.7345 19.9043 12.4921 21.4368 12.4921C22.2305 12.4921 22.9528 12.8297 23.4614 13.3697L23.6919 13.6146L24.0221 13.5505C24.1016 13.535 24.1806 13.5183 24.2591 13.5004L24.6371 14.6008C24.5798 14.6451 24.5218 14.6885 24.4629 14.7308L24.1987 14.9208L24.2092 15.2461C24.2139 15.3932 24.2182 15.5286 24.2182 15.6625C24.2182 19.8758 21.0193 24.6912 15.2011 24.6912C14.2377 24.6912 13.3113 24.5386 12.4419 24.2571C13.5387 24.0131 14.5457 23.5266 15.4004 22.8545L16.7455 21.7968L15.0347 21.7643Z" fill="#C5C0DB" stroke="#C5C0DB" stroke-width="1.22093"/>
<path d="M18.2566 35.4767C27.5702 35.4767 35.1176 27.9194 35.1176 18.5938C35.1176 9.27285 27.5702 1.71091 18.2566 1.71091C8.94292 1.71091 1.39551 9.26816 1.39551 18.5938C1.40019 27.9147 8.94761 35.4767 18.2566 35.4767Z" stroke="#C5C0DB" stroke-width="2.44186"/>
</g>
<defs>
<clipPath id="clip0_328_11656">
<rect width="375" height="4817" fill="white" transform="translate(-134 -4685)"/>
</clipPath>
</defs>
</svg>
