<svg width="288" height="305" viewBox="0 0 288 305" fill="none" xmlns="http://www.w3.org/2000/svg">
<path d="M179.189 285.352C184.281 276.354 194.894 255.704 196.455 250.212C203.177 226.578 199.378 204.943 196.455 194.36C193.533 183.777 185.488 166.588 172.359 144.707C159.231 122.826 148.633 92.5003 143.903 83.371C139.173 74.2418 93.5189 49.4229 83.2975 43.5777L73.0762 37.7402" stroke="#263238" stroke-linecap="round" stroke-linejoin="round"/>
<path d="M248.301 22.4043C248.301 22.4043 227.851 43.2162 216.899 57.0908C205.947 70.9654 177.105 129.386 177.105 129.386C177.105 129.386 194.633 157.136 201.932 172.456C209.231 187.777 217.268 208.958 217.268 227.947C217.268 246.936 217.629 265.187 217.629 274.308C217.629 278.284 218.945 282.468 220.429 285.922" stroke="#263238" stroke-linecap="round" stroke-linejoin="round"/>
<path d="M188.625 25.7876L187.326 91.7688L186.257 93.4531L169.782 119.864C169.782 119.864 166.437 114.611 159.961 100.529C152.485 84.2624 141.226 57.4592 141.595 54.1751C141.964 50.891 171.644 20.5808 173.474 18.0273" stroke="#263238" stroke-linecap="round" stroke-linejoin="round"/>
<path d="M78.5371 37.009C78.5371 37.009 132.205 66.9425 135.851 67.6731C139.496 68.4037 116.508 24.2266 116.508 24.2266" stroke="#263238" stroke-linecap="round" stroke-linejoin="round"/>
<path d="M121.982 23.865C121.982 23.865 135.826 43.2156 137.68 45.0384C139.533 46.8612 168.344 16.9277 168.344 16.9277" stroke="#263238" stroke-linecap="round" stroke-linejoin="round"/>
<path d="M216.898 5.97656L221.644 42.4858L249.031 15.4673" stroke="#263238" stroke-linecap="round" stroke-linejoin="round"/>
<path d="M192.271 20.3121L196.609 76.3104L216.714 44.5542L213.914 1" stroke="#263238" stroke-linecap="round" stroke-linejoin="round"/>
<path d="M209.23 287.821C209.23 287.821 208.607 283.122 211.43 272.147C214.253 261.172 216.129 241.422 214.56 226.686" stroke="#263238" stroke-linecap="round" stroke-linejoin="round"/>
<path d="M211.43 234.521C211.747 241.225 211.431 247.943 210.484 254.587" stroke="#263238" stroke-linecap="round" stroke-linejoin="round"/>
<path d="M207.668 251.143C207.536 256.642 206.799 262.11 205.469 267.448C203.277 276.223 201.393 279.984 201.393 279.984" stroke="#263238" stroke-linecap="round" stroke-linejoin="round"/>
<path d="M208.291 194.391C208.291 194.391 212.367 208.504 213.306 215.087" stroke="#263238" stroke-linecap="round" stroke-linejoin="round"/>
<path d="M209.545 216.656C209.545 216.656 210.483 225.747 210.799 228.254" stroke="#263238" stroke-linecap="round" stroke-linejoin="round"/>
<path d="M199.202 171.195L185.404 146.422" stroke="#263238" stroke-linecap="round" stroke-linejoin="round"/>
<path d="M188.542 156.142L175.998 136.707" stroke="#263238" stroke-linecap="round" stroke-linejoin="round"/>
<path d="M245.049 286.828L239.642 283.859L233.859 286.936L228.075 283.859L222.291 286.936L216.5 283.859L210.716 286.936L204.933 283.859L199.149 286.936L193.366 283.859L187.582 286.936L181.798 283.859L176.015 286.936L170.231 283.859L164.332 287.282L158.671 283.859L152.888 286.936L147.104 283.859L141.32 286.936L135.544 283.859L129.761 286.936L123.985 283.859L118.201 286.936L112.425 283.859L106.642 286.936L100.858 283.859L95.0744 286.936L89.2907 283.859L83.5148 286.936L77.7311 283.859L71.9475 286.936L66.1639 283.859L60.3802 286.936L54.6043 283.859L48.8206 286.936L43.037 283.859L37.2533 286.936L31.4774 283.859L18.918 290.597H253.232L245.049 286.828Z" fill="#C00AB5"/>
<path opacity="0.5" d="M245.049 286.828L239.642 283.859L233.859 286.936L228.075 283.859L222.291 286.936L216.5 283.859L210.716 286.936L204.933 283.859L199.149 286.936L193.366 283.859L187.582 286.936L181.798 283.859L176.015 286.936L170.231 283.859L164.332 287.282L158.671 283.859L152.888 286.936L147.104 283.859L141.32 286.936L135.544 283.859L129.761 286.936L123.985 283.859L118.201 286.936L112.425 283.859L106.642 286.936L100.858 283.859L95.0744 286.936L89.2907 283.859L83.5148 286.936L77.7311 283.859L71.9475 286.936L66.1639 283.859L60.3802 286.936L54.6043 283.859L48.8206 286.936L43.037 283.859L37.2533 286.936L31.4774 283.859L18.918 290.597H253.232L245.049 286.828Z" fill="white"/>
<path d="M25.6934 286.936L31.477 283.859L37.253 286.936L43.0366 283.859L48.8202 286.936L54.6039 283.859L60.3798 286.936L66.1635 283.859L71.9471 286.936L77.7308 283.859L83.5144 286.936L89.2904 283.859L95.074 286.936L100.858 283.859L106.641 286.936L112.425 283.859L118.201 286.936L123.985 283.859L129.76 286.936L135.544 283.859L141.32 286.936L147.104 283.859L152.887 286.936L158.671 283.859L164.447 286.936L170.231 283.859L176.014 286.936L181.798 283.859L187.582 286.936L193.365 283.859L199.149 286.936L204.932 283.859L210.716 286.936L216.5 283.859L222.291 286.936L228.075 283.859L233.858 286.936L239.642 283.859L245.426 286.936L251.209 283.859L257.001 286.936" stroke="#263238" stroke-miterlimit="10"/>
<path d="M16.2715 290.543H246.71" stroke="#263238" stroke-miterlimit="10"/>
<path d="M78.7292 304.232C97.8945 304.232 113.431 301.932 113.431 299.095C113.431 296.257 97.8945 293.957 78.7292 293.957C59.5639 293.957 44.0273 296.257 44.0273 299.095C44.0273 301.932 59.5639 304.232 78.7292 304.232Z" fill="#C00AB5"/>
<path opacity="0.5" d="M78.7292 304.232C97.8945 304.232 113.431 301.932 113.431 299.095C113.431 296.257 97.8945 293.957 78.7292 293.957C59.5639 293.957 44.0273 296.257 44.0273 299.095C44.0273 301.932 59.5639 304.232 78.7292 304.232Z" fill="white"/>
<path d="M187.388 214.316C187.388 214.316 182.281 230.014 183.865 245.711" stroke="#263238" stroke-width="3" stroke-linecap="round" stroke-linejoin="round"/>
<path d="M81.1526 214.316C81.1526 214.316 76.0458 230.014 77.6225 245.711" stroke="#263238" stroke-width="3" stroke-linecap="round" stroke-linejoin="round"/>
<path d="M81.5208 289.158C81.5208 289.158 77.8676 257.879 77.8676 249.119C77.8676 240.359 75.1911 238.897 73.3606 239.12C71.5302 239.343 60.1013 244.719 59.5168 254.579C58.9323 264.439 65.8388 282.444 63.6546 286.582C61.4703 290.719 54.1562 291.45 52.941 283.505C51.7258 275.56 59.3938 277.66 59.6322 280.429C59.8706 283.198 58.0555 285.543 56.7173 284.082" stroke="#263238" stroke-width="3" stroke-linecap="round" stroke-linejoin="round"/>
<path d="M67.793 219H191.188L197.656 191.066H74.2534L67.793 219Z" fill="#999999" stroke="#263238" stroke-linecap="round" stroke-linejoin="round"/>
<path d="M64.9004 219H188.295L194.763 191.066H71.3608L64.9004 219Z" fill="white" stroke="#263238" stroke-linecap="round" stroke-linejoin="round"/>
<path d="M66.7617 210.955H190.156L192.902 199.111H69.4997L66.7617 210.955Z" fill="white" stroke="#263238" stroke-linecap="round" stroke-linejoin="round"/>
<path d="M187.796 289.158C187.796 289.158 184.143 257.879 184.143 249.119C184.143 240.359 181.466 238.897 179.643 239.12C177.821 239.343 166.376 244.719 165.8 254.579C165.223 264.439 172.129 282.444 169.937 286.582C167.745 290.719 160.447 291.45 159.224 283.505C158.001 275.56 165.676 277.66 165.923 280.429C166.169 283.198 164.338 285.543 163 284.082" stroke="#263238" stroke-width="3" stroke-linecap="round" stroke-linejoin="round"/>
<path d="M117.415 167.525C116.209 167.32 114.976 167.32 113.77 167.525C112.232 167.887 110.478 169.532 110.478 175.37C110.478 181.207 112.016 201.204 112.485 207.503C112.955 213.802 112.124 232.783 112.124 232.783C112.124 232.783 108.109 233.691 104.733 234.322C101.356 234.952 101.172 236.975 101.172 236.975C101.172 236.975 113.854 237.521 114.77 237.152C115.685 236.783 115.777 234.783 116.308 232.23C116.838 229.676 116.4 212.233 117.585 206.126C118.769 200.02 118.677 186.406 119.315 180.477C119.953 174.547 119.592 169.432 118.954 168.425C118.801 168.151 118.578 167.923 118.307 167.765C118.037 167.607 117.729 167.524 117.415 167.525Z" fill="#263238" stroke="#263238" stroke-linecap="round" stroke-linejoin="round"/>
<path d="M126.183 134.031C126.183 134.031 120.884 128.555 115.138 128.37C109.393 128.186 108.747 133.3 110.847 137.676C112.946 142.052 114.954 144.16 108.839 144.344C102.725 144.529 101.079 139.776 93.4113 142.329C85.7433 144.883 88.3967 152.281 85.6587 153.466C82.9207 154.65 80.5442 152.466 81.4594 150.82C82.3747 149.174 83.7668 150.182 83.6437 150.912C83.5206 151.643 83.2822 152.374 83.9206 151.828C84.5589 151.282 84.5589 149.997 83.9206 148.628C83.2822 147.259 79.3598 147.628 77.6216 149.905C75.8835 152.181 75.3143 158.488 82.1901 161.318C89.0659 164.149 93.319 162.957 98.9796 160.68C104.64 158.404 108.47 159.311 111.031 161.957C113.593 164.602 113.585 165.879 119.245 167.064C124.906 168.248 135.943 166.887 139.957 160.403C143.972 153.92 134.666 138.684 131.566 136.038C128.467 133.392 126.183 134.031 126.183 134.031Z" fill="#C00AB5" stroke="#263238" stroke-linecap="round" stroke-linejoin="round"/>
<path d="M123.376 135.607C123.376 135.607 117.077 129.854 114.739 132.53C112.401 135.207 120.123 141.706 116.539 147.282C112.955 152.858 109.524 150.881 101.434 149.081C93.3426 147.282 89.897 146.774 88.4818 152.673C87.0667 158.572 77.153 159.872 76.9453 151.235" stroke="#263238" stroke-width="0.75" stroke-linecap="round" stroke-linejoin="round"/>
<path d="M126.79 140.438C126.79 140.438 118.876 143.514 119.775 148.536C120.675 153.558 117.807 158.265 111.5 157.911C105.193 157.558 97.11 150.351 93.3337 152.689C89.5574 155.027 91.5417 162.026 82.1895 161.319" stroke="#263238" stroke-width="0.75" stroke-linecap="round" stroke-linejoin="round"/>
<path d="M104.672 159.35C104.672 159.35 106.648 157.55 110.425 159.526C114.201 161.503 118.439 165.41 126.122 160.403" stroke="#263238" stroke-width="0.75" stroke-linecap="round" stroke-linejoin="round"/>
<path d="M134.305 237.529H116.324C113.678 237.529 107.863 237.345 107.863 237.345C107.863 237.345 102.387 257.241 100.657 265.801C98.9265 274.361 97.8267 282.045 97.919 282.722C98.0113 283.398 99.9263 285.029 99.5572 288.567C99.3477 291.451 99.3169 294.346 99.4649 297.234L98.465 297.688L97.4575 297.511L96.6423 294.22C96.6423 294.22 95.9116 297.234 95.6348 298.603C95.3579 299.972 93.3274 301.618 91.3432 302.257C89.3589 302.895 82.3062 303.257 81.2141 302.803C80.122 302.349 85.598 297.688 85.9595 297.142C86.3209 296.596 91.4355 288.744 91.8046 284.275C92.1738 279.807 92.989 238.821 92.989 235.714C92.989 232.607 93.3505 225.954 95.9962 222.939C98.6419 219.924 101.934 221.401 104.395 222.578C106.856 223.755 119.362 233.068 125.568 234.807C131.775 236.545 135.036 237.16 134.305 237.529Z" fill="white" stroke="#263238" stroke-linecap="round" stroke-linejoin="round"/>
<path d="M125.538 234.79C123.901 234.272 122.32 233.594 120.816 232.768L119.277 234.46C118.06 235.716 116.637 236.757 115.07 237.536H134.298C135.036 237.159 131.744 236.521 125.538 234.79Z" fill="#C00AB5" stroke="#263238" stroke-linecap="round" stroke-linejoin="round"/>
<path d="M99.9875 235.521C95.9267 235.298 93.9116 235.867 92.9503 236.359C92.881 242.512 92.1196 279.99 91.7735 284.259C91.4044 288.727 86.2975 296.564 85.9284 297.126C85.5592 297.687 80.0909 302.325 81.183 302.786C82.2751 303.248 89.3047 302.878 91.3121 302.24C93.3194 301.602 95.3268 299.933 95.6037 298.587C95.8805 297.241 96.6112 294.203 96.6112 294.203L97.4264 297.495L98.434 297.672L99.4338 297.218C99.2858 294.329 99.3166 291.435 99.5261 288.55C99.8953 284.989 97.9879 283.343 97.8879 282.705C97.7879 282.067 98.8877 274.399 100.626 265.785C102.364 257.171 107.809 237.343 107.809 237.343C107.809 237.343 106.74 235.882 99.9875 235.521Z" fill="white" stroke="#263238" stroke-linecap="round" stroke-linejoin="round"/>
<path d="M121.8 161.588C121.8 161.588 123.53 163.78 123.169 165.879C122.807 167.979 119.884 167.617 118.331 167.417C116.777 167.217 116.231 167.687 115.139 170.248C114.047 172.809 113.601 175.993 112.947 179.831C112.293 183.669 109.932 186.307 111.409 189.96C112.886 193.613 119.154 199.658 119.154 200.197C118.733 203.582 118.093 206.938 117.239 210.241C116.27 213.794 112.578 219.655 112.309 223.5C112.04 227.346 118.331 232.268 127.091 234.36C135.851 236.452 138.627 234.821 142.242 231.991C145.857 229.161 145.711 223.139 145.257 217.663C144.803 212.187 138.589 201.596 138.412 199.32C138.235 197.043 140.143 186.722 141.242 179.785C142.342 172.847 140.112 167.156 136.766 165.818C133.421 164.479 130.014 166.095 129.191 165.087C128.368 164.08 129.56 156.873 129.56 156.873L121.8 161.588Z" fill="#263238" stroke="#263238" stroke-linecap="round" stroke-linejoin="round"/>
<path d="M145.256 217.632C144.795 212.156 138.588 201.565 138.411 199.288C138.44 197.514 138.612 195.744 138.927 193.997H138.865C134.397 193.997 131.013 191.628 130.559 189.621C130.105 187.614 129.467 178.938 131.743 173.008C133.443 168.594 135.089 166.356 135.819 165.494C135.315 165.367 134.8 165.284 134.281 165.248C130.197 170.07 126.875 181.953 126.875 181.953L114.285 181.184C114.285 181.184 116.476 172.724 117.361 170.14C117.704 169.17 118.209 168.265 118.853 167.463L118.276 167.402C116.738 167.217 116.177 167.671 115.084 170.232C113.992 172.793 113.546 175.977 112.892 179.815C112.239 183.653 109.878 186.291 111.354 189.944C112.831 193.597 119.153 199.658 119.153 200.196C118.732 203.582 118.092 206.937 117.238 210.24C116.269 213.794 112.577 219.654 112.308 223.5C112.039 227.345 118.33 232.268 127.09 234.359C135.85 236.451 138.627 234.821 142.241 231.991C145.856 229.16 145.71 223.108 145.256 217.632Z" fill="#C00AB5" stroke="#263238" stroke-linecap="round" stroke-linejoin="round"/>
<path d="M121.16 195.174C123.294 196.783 125.753 197.907 128.367 198.466L121.16 195.174Z" fill="white"/>
<path d="M121.16 195.174C123.294 196.783 125.753 197.907 128.367 198.466" stroke="#263238" stroke-linecap="round" stroke-linejoin="round"/>
<path d="M139.342 217.993C139.342 217.993 129.12 213.709 113.608 212.424C98.0948 211.14 93.5263 210.971 92.3419 212.247C91.1575 213.524 86.043 225.322 86.043 225.322L94.5031 230.068C94.5031 230.068 98.4255 226.137 99.5176 222.853C99.5176 222.853 108.831 228.329 114.761 232.529C120.691 236.728 135.296 238.828 139.372 236.636C143.449 234.444 145.856 228.606 144.756 223.492" fill="#C00AB5"/>
<path d="M139.342 217.993C139.342 217.993 129.12 213.709 113.608 212.424C98.0948 211.14 93.5263 210.971 92.3419 212.247C91.1575 213.524 86.043 225.322 86.043 225.322L94.5031 230.068C94.5031 230.068 98.4255 226.137 99.5176 222.853C99.5176 222.853 108.831 228.329 114.761 232.529C120.691 236.728 135.296 238.828 139.372 236.636C143.449 234.444 145.856 228.606 144.756 223.492" stroke="#263238" stroke-linecap="round" stroke-linejoin="round"/>
<path d="M92.3185 212.248C91.1341 213.525 86.0195 225.323 86.0195 225.323L94.4796 230.068C94.4796 230.068 98.4021 226.138 99.4942 222.854C99.4942 222.854 108.808 228.33 114.738 232.53C116.071 233.43 117.51 234.163 119.022 234.714C120.975 233.022 123.367 229.876 123.59 224.592C123.753 220.393 122.309 216.29 119.552 213.117C117.653 212.856 115.653 212.625 113.553 212.448C98.0637 211.148 93.5029 210.972 92.3185 212.248Z" fill="white" stroke="#263238" stroke-linecap="round" stroke-linejoin="round"/>
<path d="M124.861 135.385C123.872 135.273 122.871 135.428 121.962 135.834C121.053 136.24 120.269 136.881 119.692 137.692C117.385 140.561 113.955 148.598 113.732 150.767C113.509 152.936 115.331 159.373 115.678 161.211C116.024 163.049 119.123 163.965 119.923 163.618C121.928 162.435 123.998 161.364 126.122 160.411C129.452 159.035 131.629 156.966 132.775 154.212C133.921 151.459 135.536 143.191 131.859 138.83C128.183 134.469 124.861 135.385 124.861 135.385Z" fill="white" stroke="#263238" stroke-linecap="round" stroke-linejoin="round"/>
<path d="M117.176 142.883C117.176 142.883 118.453 141.237 119.975 142.275" stroke="#263238" stroke-linecap="round" stroke-linejoin="round"/>
<path d="M122.891 142.882C122.891 142.882 125.752 141.606 127.636 145.313" stroke="#263238" stroke-linecap="round" stroke-linejoin="round"/>
<path d="M119.468 145.482C119.468 145.482 119.122 146.628 117.284 147.659C115.446 148.69 115.107 148.236 115.907 149.151C116.117 149.413 116.378 149.63 116.674 149.789C116.97 149.948 117.295 150.045 117.63 150.074" fill="white"/>
<path d="M119.468 145.482C119.468 145.482 119.122 146.628 117.284 147.659C115.446 148.69 115.107 148.236 115.907 149.151C116.117 149.413 116.378 149.63 116.674 149.789C116.97 149.948 117.295 150.045 117.63 150.074" stroke="#263238" stroke-linecap="round" stroke-linejoin="round"/>
<path d="M116.484 152.25C117.99 152.866 119.678 152.866 121.184 152.25" stroke="#263238" stroke-linecap="round" stroke-linejoin="round"/>
<path d="M123.946 145.137L122.354 147.283" stroke="#263238" stroke-linecap="round" stroke-linejoin="round"/>
<path d="M126.121 148.236C126.121 148.236 121.76 147.66 121.414 146.629" stroke="#263238" stroke-linecap="round" stroke-linejoin="round"/>
<path d="M116.708 144.676L115.562 146.568" stroke="#263238" stroke-linecap="round" stroke-linejoin="round"/>
<path d="M117.976 146.86C117.48 147.017 116.951 147.036 116.445 146.914C115.94 146.792 115.477 146.534 115.107 146.168" stroke="#263238" stroke-linecap="round" stroke-linejoin="round"/>
<path d="M134.028 185.415C134.369 191.496 135.164 197.542 136.404 203.504C138.412 212.91 145.257 234.814 145.526 235.722C145.795 236.63 147.833 237.914 150.548 238.029C153.263 238.145 163.692 238.122 163.692 238.122C163.692 238.122 162.046 236.022 160.862 234.199C159.677 232.376 157.67 232.661 156.024 233.192C154.378 233.722 151.094 234.376 150.364 233.653C149.633 232.93 149.087 232.115 147.533 223.978C145.98 215.841 144.341 200.905 144.341 191.937C144.341 182.969 144.98 176.055 142.696 170.31C140.411 164.565 135.851 165.695 133.936 166.564" fill="#263238"/>
<path d="M134.028 185.415C134.369 191.496 135.164 197.542 136.404 203.504C138.412 212.91 145.257 234.814 145.526 235.722C145.795 236.63 147.833 237.914 150.548 238.029C153.263 238.145 163.692 238.122 163.692 238.122C163.692 238.122 162.046 236.022 160.862 234.199C159.677 232.376 157.67 232.661 156.024 233.192C154.378 233.722 151.094 234.376 150.364 233.653C149.633 232.93 149.087 232.115 147.533 223.978C145.98 215.841 144.341 200.905 144.341 191.937C144.341 182.969 144.98 176.055 142.696 170.31C140.411 164.565 135.851 165.695 133.936 166.564" stroke="#263238" stroke-linecap="round" stroke-linejoin="round"/>
<path d="M160.878 234.153C159.693 232.323 157.686 232.615 156.04 233.145C154.394 233.676 151.11 234.33 150.379 233.607C149.649 232.884 149.195 232.184 147.918 225.785L142.988 227.346C144.365 231.961 145.426 235.322 145.526 235.668C145.803 236.583 147.834 237.86 150.549 237.975C153.263 238.091 163.692 238.068 163.692 238.068C163.692 238.068 162.047 235.976 160.878 234.153Z" fill="white" stroke="#263238" stroke-linecap="round" stroke-linejoin="round"/>
<path d="M156.57 234.79C156.57 234.79 157.847 235.698 160.585 235.152C163.323 234.606 165.514 233.875 164.784 235.429C164.053 236.982 163.053 237.252 161.223 237.528C161.223 237.528 156.939 237.621 154.932 237.621" fill="white"/>
<path d="M156.57 234.79C156.57 234.79 157.847 235.698 160.585 235.152C163.323 234.606 165.514 233.875 164.784 235.429C164.053 236.982 163.053 237.252 161.223 237.528C161.223 237.528 156.939 237.621 154.932 237.621" stroke="#263238" stroke-linecap="round" stroke-linejoin="round"/>
<path d="M186.781 236.828H49.2656V239.874H186.781V236.828Z" fill="white" stroke="#263238" stroke-linecap="round" stroke-linejoin="round"/>
<path d="M186.789 236.828H150.402V239.874H186.789V236.828Z" fill="#999999" stroke="#263238" stroke-linecap="round" stroke-linejoin="round"/>
<path d="M86.2042 219.654C86.2042 219.654 88.5115 219.923 92.2262 222.577C95.941 225.23 98.7943 228.96 98.4329 229.691C98.0714 230.422 78.6285 253.956 75.506 260.255C73.9185 263.678 72.1205 266.999 70.1222 270.2C69.0301 271.938 66.1998 274.214 65.1 275.037C64.0002 275.86 62.4543 276.952 62.4543 276.952L61.5468 276.314L64.1002 271.392C64.1002 271.392 58.3473 270.292 55.8862 268.1C53.4251 265.908 48.4028 257.333 47.7645 255.871C47.1261 254.41 47.8568 252.795 48.672 253.133C49.4873 253.472 51.1408 257.24 56.7091 258.517C62.2774 259.794 65.7384 260.524 65.7384 260.524C65.7384 260.524 66.9305 260.432 69.4839 256.24C72.0373 252.049 86.2042 219.654 86.2042 219.654Z" fill="#263238" stroke="#263238" stroke-linecap="round" stroke-linejoin="round"/>
<path d="M92.2415 188.068C90.2901 189.87 88.5719 191.908 87.127 194.137L94.2104 198.574C94.5796 196.728 95.664 194.39 98.3174 191.837L92.2415 188.068Z" fill="#263238" stroke="#263238" stroke-linecap="round" stroke-linejoin="round"/>
<path d="M104.856 181.199C102.88 182.03 100.965 182.868 99.2266 183.691L103.741 187.767L103.995 187.606C105.405 186.765 106.795 185.97 108.164 185.222L104.856 181.199Z" fill="#263238" stroke="#263238" stroke-linecap="round" stroke-linejoin="round"/>
<path d="M117.077 176.031C115.416 176.8 113.485 177.631 111.447 178.477L115.293 181.507C117.054 180.615 118.731 179.792 120.292 179.015L117.077 176.031Z" fill="#263238" stroke="#263238" stroke-linecap="round" stroke-linejoin="round"/>
<path d="M131.198 172.555L125.868 169.479C125.073 170.416 124.215 171.298 123.299 172.117L127.598 175.154C128.909 174.453 130.12 173.579 131.198 172.555Z" fill="#263238" stroke="#263238" stroke-linecap="round" stroke-linejoin="round"/>
<path d="M128.967 162.541C129.184 163.004 129.282 163.513 129.253 164.024C129.223 164.534 129.067 165.029 128.798 165.464C127.468 167.632 124.591 171.716 120.492 174.239C114.7 177.808 98.5339 182.938 93.404 187.06C90.1824 189.744 87.5286 193.044 85.5977 196.766L94.5192 202.673C94.5192 202.673 90.8429 195.428 103.995 187.621C117.146 179.815 129.19 175.577 131.682 172.016C134.174 168.455 133.69 164.987 132.905 163.987C132.121 162.987 129.006 162.541 129.006 162.541H128.967Z" fill="white" stroke="#263238" stroke-linecap="round" stroke-linejoin="round"/>
<path d="M92.2415 188.068C90.2901 189.87 88.5719 191.908 87.127 194.137L94.2104 198.574C94.5796 196.728 95.664 194.39 98.3174 191.837L92.2415 188.068Z" fill="#263238" stroke="#263238" stroke-linecap="round" stroke-linejoin="round"/>
<path d="M104.856 181.199C102.88 182.03 100.965 182.868 99.2266 183.691L103.741 187.767L103.995 187.606C105.405 186.765 106.795 185.97 108.164 185.222L104.856 181.199Z" fill="#263238" stroke="#263238" stroke-linecap="round" stroke-linejoin="round"/>
<path d="M117.077 176.031C115.416 176.8 113.485 177.631 111.447 178.477L115.293 181.507C117.054 180.615 118.731 179.792 120.292 179.015L117.077 176.031Z" fill="#263238" stroke="#263238" stroke-linecap="round" stroke-linejoin="round"/>
<path d="M131.198 172.555L125.868 169.479C125.073 170.416 124.215 171.298 123.299 172.117L127.598 175.154C128.909 174.453 130.12 173.579 131.198 172.555Z" fill="#263238" stroke="#263238" stroke-linecap="round" stroke-linejoin="round"/>
<path d="M122.845 163.326C122.845 163.326 123.614 167.618 114.769 168.618C105.925 169.617 98.2489 163.326 90.581 166.887C82.913 170.448 82.4285 175.816 76.7987 181.308C71.1688 186.799 63.6624 187.784 61.832 187.876C60.0015 187.968 66.2158 193.352 66.9465 193.352C67.6771 193.352 76.068 193.721 81.5594 188.06C87.0508 182.4 89.2504 174.094 96.1723 171.54C103.094 168.987 111.87 173.078 117.346 171.086C122.822 169.094 124.168 167.156 122.845 163.326Z" fill="white" stroke="#263238" stroke-linecap="round" stroke-linejoin="round"/>
<path d="M96.1492 171.54C96.4107 171.44 96.6799 171.378 96.9183 171.294L93.7035 165.91C92.6156 166.076 91.5566 166.394 90.5579 166.856C89.958 167.133 89.4196 167.425 88.9043 167.725L93.1497 173.147C94.0681 172.472 95.0781 171.93 96.1492 171.54Z" fill="#263238" stroke="#263238" stroke-linecap="round" stroke-linejoin="round"/>
<path d="M78.0147 190.768L72.9848 184.23C70.8771 185.512 68.5948 186.481 66.209 187.107L71.8388 192.952C74.0042 192.571 76.0912 191.833 78.0147 190.768Z" fill="#263238" stroke="#263238" stroke-linecap="round" stroke-linejoin="round"/>
<path d="M83.7744 185.408C85.0511 183.708 86.174 181.901 87.3045 180.155L82.0746 174.617C80.8865 176.463 79.5734 178.226 78.1445 179.893L83.7744 185.408Z" fill="#263238" stroke="#263238" stroke-linecap="round" stroke-linejoin="round"/>
<path d="M106.171 170.978L105.649 167.671C104.272 167.333 102.911 166.956 101.572 166.633L103.357 170.724C104.303 170.778 105.241 170.871 106.171 170.978Z" fill="#263238" stroke="#263238" stroke-linecap="round" stroke-linejoin="round"/>
<path d="M124.445 129.832C124.445 129.832 122.799 138.592 124.537 143.883C126.275 149.175 128.828 152.097 128.828 157.12C128.828 162.142 125.537 165.057 121.799 165.426C118.061 165.795 112.67 165.241 107.563 169.533C102.456 173.825 104.486 178.478 106.74 179.385C108.993 180.293 110.208 179.301 110.208 179.301C109.917 179.246 109.64 179.133 109.394 178.969C109.147 178.804 108.937 178.592 108.774 178.344C108.612 178.096 108.501 177.818 108.449 177.527C108.397 177.235 108.404 176.936 108.47 176.647C108.932 174.463 110.008 172.725 117.961 172.909C125.914 173.094 135.397 169.833 143.887 165.149C152.378 160.465 148.264 147.083 145.256 140.784C142.249 134.485 131.29 129.555 128.005 128.732C124.721 127.909 124.445 129.832 124.445 129.832Z" fill="#C00AB5" stroke="#263238" stroke-linecap="round" stroke-linejoin="round"/>
<path d="M139.558 134.531C139.558 134.531 149.995 152.336 142.796 160.604C135.597 168.872 128.237 165.987 118.954 168.433C109.671 170.879 108.609 174.817 108.609 175.355" stroke="#263238" stroke-width="0.75" stroke-linecap="round" stroke-linejoin="round"/>
<path d="M130.39 129.855C130.39 129.855 128.228 136.324 134.52 145.138C140.811 153.951 136.319 163.842 131.828 165.28C128.695 166.23 125.511 167.001 122.291 167.588" stroke="#263238" stroke-width="0.75" stroke-linecap="round" stroke-linejoin="round"/>
<path d="M123.553 139.207C123.553 139.207 124.629 145.675 128.406 150.744C132.182 155.812 132.605 163.688 128.798 165.495" stroke="#263238" stroke-width="0.75" stroke-linecap="round" stroke-linejoin="round"/>
<path d="M99.9875 235.521C95.9267 235.298 93.9116 235.867 92.9503 236.359C92.881 242.512 92.1196 279.99 91.7735 284.259C91.4044 288.727 86.2975 296.564 85.9284 297.126C85.5592 297.687 80.0909 302.325 81.183 302.786C82.2751 303.248 89.3047 302.878 91.3121 302.24C93.3194 301.602 95.3268 299.933 95.6037 298.587C95.8805 297.241 96.6112 294.203 96.6112 294.203L97.4264 297.495L98.434 297.672L99.4338 297.218C99.2858 294.329 99.3166 291.435 99.5261 288.55C99.8953 284.989 97.9879 283.343 97.8879 282.705C97.7879 282.067 98.8877 274.399 100.626 265.785C102.364 257.171 107.809 237.343 107.809 237.343C107.809 237.343 106.74 235.882 99.9875 235.521Z" fill="#263238" stroke="#263238" stroke-linecap="round" stroke-linejoin="round"/>
<path d="M107.809 237.344C108.184 235.51 108.398 233.647 108.447 231.775L107.809 237.344Z" fill="white"/>
<path d="M107.809 237.344C108.184 235.51 108.398 233.647 108.447 231.775" stroke="#263238" stroke-linecap="round" stroke-linejoin="round"/>
<path d="M124.567 100.297C116.445 105.781 108.078 112.172 99.7021 115.079C85.0892 120.17 65.354 117.625 48.8184 102.996" stroke="#263238" stroke-linecap="round" stroke-linejoin="round"/>
<path d="M170.929 101.09C170.929 101.09 158.846 89.6456 144.856 90.9146C140.242 91.3377 135.458 93.5142 130.559 96.4445" stroke="#263238" stroke-linecap="round" stroke-linejoin="round"/>
<path d="M53.5259 115.371C52.3722 114.479 51.2186 113.541 50.0957 112.541" stroke="#263238" stroke-linecap="round" stroke-linejoin="round"/>
<path d="M106.963 121.979C105.03 122.992 103.028 123.868 100.972 124.601C88.366 128.985 71.9919 127.678 57.1328 117.91" stroke="#263238" stroke-linecap="round" stroke-linejoin="round"/>
<path d="M237.787 170.047C232.949 173.316 227.958 177.123 222.966 178.861C214.252 181.891 202.501 180.399 192.641 171.662" stroke="#263238" stroke-linecap="round" stroke-linejoin="round"/>
<path d="M265.421 170.525C265.421 170.525 258.222 163.703 249.885 164.457C247.132 164.71 244.278 165.995 241.363 167.748" stroke="#263238" stroke-linecap="round" stroke-linejoin="round"/>
<path d="M195.485 179.03C194.793 178.507 194.109 177.938 193.439 177.346" stroke="#263238" stroke-linecap="round" stroke-linejoin="round"/>
<path d="M227.296 182.983C226.145 183.58 224.952 184.094 223.728 184.521C216.213 187.136 206.454 186.375 197.578 180.537" stroke="#263238" stroke-linecap="round" stroke-linejoin="round"/>
<path d="M84.5527 132.684C84.8411 133.386 85.2979 134.006 85.8828 134.489C86.4677 134.972 87.1626 135.303 87.906 135.453C90.3902 135.876 93.6051 134.192 93.6051 134.192C92.1108 132.96 90.407 132.006 88.5751 131.377C87.849 131.217 87.0933 131.254 86.3862 131.484C85.6791 131.714 85.0461 132.128 84.5527 132.684Z" fill="#C00AB5"/>
<path d="M109.578 66.1874C109.578 66.1874 106.502 63.111 102.348 64.2877C98.1952 65.4645 94.3574 70.379 94.3574 70.379C94.3574 70.379 100.064 71.9172 104.256 71.1481C108.447 70.379 109.578 66.1874 109.578 66.1874Z" fill="#C00AB5"/>
<path d="M162.709 177.408C162.709 177.408 159.632 174.332 155.479 175.508C151.326 176.685 147.48 181.6 147.48 181.6C147.48 181.6 153.195 183.138 157.379 182.369C161.563 181.6 162.709 177.408 162.709 177.408Z" fill="#C00AB5"/>
<path d="M80.6678 58.2734C80.6678 58.2734 76.607 59.704 75.8379 63.9802C75.0688 68.2564 77.8914 73.817 77.8914 73.817C77.8914 73.817 81.7369 69.3177 82.8444 65.2107C83.9519 61.1037 80.6678 58.2734 80.6678 58.2734Z" fill="#C00AB5"/>
<path d="M102.935 206.457C102.935 206.457 98.8739 207.895 98.0971 212.164C97.3203 216.432 100.12 222.001 100.12 222.001C100.12 222.001 103.965 217.501 105.073 213.394C106.18 209.287 102.935 206.457 102.935 206.457Z" fill="#C00AB5"/>
<path d="M154.064 58.7059C154.353 59.4075 154.81 60.0271 155.394 60.5101C155.979 60.993 156.674 61.3243 157.418 61.4747C159.902 61.8977 163.124 60.2134 163.124 60.2134C161.627 58.9818 159.921 58.0284 158.087 57.3985C157.361 57.2386 156.605 57.2755 155.898 57.5053C155.191 57.7352 154.558 58.1497 154.064 58.7059Z" fill="#C00AB5"/>
<path d="M120.547 51.137C120.835 51.8376 121.29 52.4566 121.874 52.9395C122.457 53.4224 123.15 53.7542 123.892 53.9057C126.384 54.3287 129.599 52.6444 129.599 52.6444C128.103 51.4113 126.396 50.4578 124.562 49.8295C123.837 49.6702 123.082 49.7075 122.376 49.9373C121.671 50.1672 121.039 50.5813 120.547 51.137Z" fill="#C00AB5"/>
<path d="M51.3574 205.665C51.6451 206.366 52.1007 206.985 52.6842 207.468C53.2676 207.951 53.961 208.283 54.703 208.434C57.1949 208.849 60.4097 207.173 60.4097 207.173C60.4097 207.173 57.7717 204.973 55.3721 204.35C54.6464 204.193 53.8921 204.233 53.1866 204.464C52.4811 204.695 51.8497 205.11 51.3574 205.665Z" fill="#C00AB5"/>
<path d="M168.785 38.0244C168.785 38.0244 169.97 42.1622 174.169 43.1928C178.368 44.2234 184.113 41.7392 184.113 41.7392C184.113 41.7392 179.853 37.6399 175.822 36.2785C171.792 34.9172 168.785 38.0244 168.785 38.0244Z" fill="#C00AB5"/>
<path d="M105.211 28.9178C105.211 28.9178 106.395 33.0556 110.595 34.0862C114.794 35.1168 120.539 32.6402 120.539 32.6402C120.539 32.6402 116.271 28.5025 112.271 27.1412C108.272 25.7799 105.211 28.9178 105.211 28.9178Z" fill="#C00AB5"/>
<path d="M197.603 19.9269C197.603 19.9269 197.133 24.2031 200.679 26.7566C204.225 29.31 210.431 29.1792 210.431 29.1792C210.431 29.1792 208.047 23.7955 204.832 20.9806C201.617 18.1657 197.603 19.9269 197.603 19.9269Z" fill="#C00AB5"/>
<path d="M53.8039 99.5754C53.8039 99.5754 52.9194 95.3607 48.7893 94.0224C44.6593 92.6842 38.791 94.73 38.791 94.73C38.791 94.73 42.7365 99.137 46.6512 100.791C50.566 102.444 53.8039 99.5754 53.8039 99.5754Z" fill="#C00AB5"/>
<path d="M181.458 17.912C181.458 17.912 180.582 13.6896 176.451 12.3514C172.321 11.0131 166.453 13.0666 166.453 13.0666C166.453 13.0666 170.391 17.4736 174.313 19.1271C178.236 20.7807 181.458 17.912 181.458 17.912Z" fill="#C00AB5"/>
<path d="M52.2804 64.5508C52.2804 64.5508 51.396 60.3361 47.2659 58.9978C43.1358 57.6596 37.2676 59.7131 37.2676 59.7131C37.2676 59.7131 41.2131 64.1124 45.1278 65.7736C49.0425 67.4349 52.2804 64.5508 52.2804 64.5508Z" fill="#C00AB5"/>
<path opacity="0.3" d="M52.2804 64.5508C52.2804 64.5508 51.396 60.3361 47.2659 58.9978C43.1358 57.6596 37.2676 59.7131 37.2676 59.7131C37.2676 59.7131 41.2131 64.1124 45.1278 65.7736C49.0425 67.4349 52.2804 64.5508 52.2804 64.5508Z" fill="black"/>
<path d="M152.572 119.164C152.572 119.164 151.695 114.949 147.565 113.611C143.435 112.273 137.566 114.326 137.566 114.326C137.566 114.326 141.504 118.726 145.427 120.387C149.349 122.048 152.572 119.164 152.572 119.164Z" fill="#C00AB5"/>
<path opacity="0.3" d="M152.572 119.164C152.572 119.164 151.695 114.949 147.565 113.611C143.435 112.273 137.566 114.326 137.566 114.326C137.566 114.326 141.504 118.726 145.427 120.387C149.349 122.048 152.572 119.164 152.572 119.164Z" fill="black"/>
<path d="M107.542 93.7685C107.542 93.7685 103.696 91.7611 100.074 94.0838C96.4512 96.4065 94.2285 102.267 94.2285 102.267C94.2285 102.267 100.135 102.036 103.911 100.075C107.688 98.1139 107.542 93.7685 107.542 93.7685Z" fill="#C00AB5"/>
<path opacity="0.3" d="M107.542 93.7685C107.542 93.7685 103.696 91.7611 100.074 94.0838C96.4512 96.4065 94.2285 102.267 94.2285 102.267C94.2285 102.267 100.135 102.036 103.911 100.075C107.688 98.1139 107.542 93.7685 107.542 93.7685Z" fill="black"/>
<path d="M230.389 162.28C230.389 162.28 233.957 164.695 237.857 162.78C241.756 160.865 244.548 155.281 244.548 155.281C244.548 155.281 238.649 154.866 234.688 156.412C230.727 157.958 230.389 162.28 230.389 162.28Z" fill="#C00AB5"/>
<path opacity="0.3" d="M230.389 162.28C230.389 162.28 233.957 164.695 237.857 162.78C241.756 160.865 244.548 155.281 244.548 155.281C244.548 155.281 238.649 154.866 234.688 156.412C230.727 157.958 230.389 162.28 230.389 162.28Z" fill="black"/>
<path d="M244.811 51.7293C244.811 51.7293 248.379 54.1442 252.279 52.2292C256.178 50.3141 258.97 44.7304 258.97 44.7304C258.97 44.7304 253.071 44.3151 249.11 45.861C245.149 47.4069 244.811 51.7293 244.811 51.7293Z" fill="#C00AB5"/>
<path opacity="0.3" d="M244.811 51.7293C244.811 51.7293 248.379 54.1442 252.279 52.2292C256.178 50.3141 258.97 44.7304 258.97 44.7304C258.97 44.7304 253.071 44.3151 249.11 45.861C245.149 47.4069 244.811 51.7293 244.811 51.7293Z" fill="black"/>
<path d="M138.512 18.4809C138.512 18.4809 134.705 16.4658 131.037 18.7962C127.368 21.1266 125.199 26.9717 125.199 26.9717C125.199 26.9717 131.098 26.741 134.875 24.7798C138.651 22.8186 138.512 18.4809 138.512 18.4809Z" fill="#C00AB5"/>
<path opacity="0.3" d="M138.512 18.4809C138.512 18.4809 134.705 16.4658 131.037 18.7962C127.368 21.1266 125.199 26.9717 125.199 26.9717C125.199 26.9717 131.098 26.741 134.875 24.7798C138.651 22.8186 138.512 18.4809 138.512 18.4809Z" fill="black"/>
<path d="M112.194 39.8305C112.194 39.8305 108.387 37.8154 104.726 40.1458C101.065 42.4762 98.8809 48.3213 98.8809 48.3213C98.8809 48.3213 104.788 48.0906 108.564 46.1294C112.34 44.1682 112.194 39.8305 112.194 39.8305Z" fill="#C00AB5"/>
<path opacity="0.3" d="M112.194 39.8305C112.194 39.8305 108.387 37.8154 104.726 40.1458C101.065 42.4762 98.8809 48.3213 98.8809 48.3213C98.8809 48.3213 104.788 48.0906 108.564 46.1294C112.34 44.1682 112.194 39.8305 112.194 39.8305Z" fill="black"/>
<path d="M94.2355 33.2246C94.2355 33.2246 91.2821 36.3625 92.5512 40.5157C93.8202 44.6688 98.8809 48.3221 98.8809 48.3221C98.8809 48.3221 100.227 42.5692 99.3423 38.4084C98.4579 34.2475 94.2355 33.2246 94.2355 33.2246Z" fill="#C00AB5"/>
<path opacity="0.3" d="M94.2355 33.2246C94.2355 33.2246 91.2821 36.3625 92.5512 40.5157C93.8202 44.6688 98.8809 48.3221 98.8809 48.3221C98.8809 48.3221 100.227 42.5692 99.3423 38.4084C98.4579 34.2475 94.2355 33.2246 94.2355 33.2246Z" fill="black"/>
<path d="M49.3574 27.1333C49.3574 27.1333 49.3959 31.4403 53.2029 33.563C57.01 35.6858 63.2012 34.8167 63.2012 34.8167C63.2012 34.8167 60.1248 29.7329 56.6254 27.3795C53.126 25.026 49.3574 27.1333 49.3574 27.1333Z" fill="#C00AB5"/>
<path opacity="0.3" d="M49.3574 27.1333C49.3574 27.1333 49.3959 31.4403 53.2029 33.563C57.01 35.6858 63.2012 34.8167 63.2012 34.8167C63.2012 34.8167 60.1248 29.7329 56.6254 27.3795C53.126 25.026 49.3574 27.1333 49.3574 27.1333Z" fill="black"/>
<path d="M52.0798 46.076C52.0798 46.076 56.2407 47.1836 59.2863 44.0995C62.332 41.0154 63.1318 34.8164 63.1318 34.8164C63.1318 34.8164 57.4251 36.3546 54.1872 39.1234C50.9492 41.8921 52.0798 46.076 52.0798 46.076Z" fill="#C00AB5"/>
<path opacity="0.3" d="M52.0798 46.076C52.0798 46.076 56.2407 47.1836 59.2863 44.0995C62.332 41.0154 63.1318 34.8164 63.1318 34.8164C63.1318 34.8164 57.4251 36.3546 54.1872 39.1234C50.9492 41.8921 52.0798 46.076 52.0798 46.076Z" fill="black"/>
<path d="M217.792 65.7878C217.792 65.7878 221.599 63.7728 221.737 59.435C221.876 55.0973 218.261 50.0059 218.261 50.0059C218.261 50.0059 215.131 55.0127 214.631 59.2351C214.131 63.4574 217.792 65.7878 217.792 65.7878Z" fill="#C00AB5"/>
<path opacity="0.3" d="M217.792 65.7878C217.792 65.7878 221.599 63.7728 221.737 59.435C221.876 55.0973 218.261 50.0059 218.261 50.0059C218.261 50.0059 215.131 55.0127 214.631 59.2351C214.131 63.4574 217.792 65.7878 217.792 65.7878Z" fill="black"/>
<path d="M233.326 54.6512C233.326 54.6512 232.396 50.4442 228.25 49.1598C224.105 47.8754 218.252 50.0058 218.252 50.0058C218.252 50.0058 222.251 54.359 226.189 55.9664C230.127 57.5738 233.326 54.6512 233.326 54.6512Z" fill="#C00AB5"/>
<path opacity="0.3" d="M233.326 54.6512C233.326 54.6512 232.396 50.4442 228.25 49.1598C224.105 47.8754 218.252 50.0058 218.252 50.0058C218.252 50.0058 222.251 54.359 226.189 55.9664C230.127 57.5738 233.326 54.6512 233.326 54.6512Z" fill="black"/>
<path d="M197.633 29.357C197.633 29.357 197.679 33.664 201.478 35.779C205.278 37.894 211.477 37.0403 211.477 37.0403C211.477 37.0403 208.469 31.9489 204.947 29.557C201.424 27.1651 197.633 29.357 197.633 29.357Z" fill="#C00AB5"/>
<path opacity="0.3" d="M197.633 29.357C197.633 29.357 197.679 33.664 201.478 35.779C205.278 37.894 211.477 37.0403 211.477 37.0403C211.477 37.0403 208.469 31.9489 204.947 29.557C201.424 27.1651 197.633 29.357 197.633 29.357Z" fill="black"/>
<path d="M200.356 48.291C200.356 48.291 204.524 49.4062 207.57 46.3144C210.615 43.2226 211.415 37.0391 211.415 37.0391C211.415 37.0391 205.709 38.5773 202.463 41.3383C199.217 44.0994 200.356 48.291 200.356 48.291Z" fill="#C00AB5"/>
<path opacity="0.3" d="M200.356 48.291C200.356 48.291 204.524 49.4062 207.57 46.3144C210.615 43.2226 211.415 37.0391 211.415 37.0391C211.415 37.0391 205.709 38.5773 202.463 41.3383C199.217 44.0994 200.356 48.291 200.356 48.291Z" fill="black"/>
<path d="M121.4 55.8902C121.4 55.8902 121.439 60.1972 125.246 62.3122C129.053 64.4272 135.244 63.5735 135.244 63.5735C135.244 63.5735 132.237 58.4821 128.715 56.0902C125.192 53.6983 121.4 55.8902 121.4 55.8902Z" fill="#C00AB5"/>
<path opacity="0.3" d="M121.4 55.8902C121.4 55.8902 121.439 60.1972 125.246 62.3122C129.053 64.4272 135.244 63.5735 135.244 63.5735C135.244 63.5735 132.237 58.4821 128.715 56.0902C125.192 53.6983 121.4 55.8902 121.4 55.8902Z" fill="black"/>
<path d="M124.122 74.8262C124.122 74.8262 128.283 75.9337 131.336 72.8496C134.389 69.7655 135.182 63.5742 135.182 63.5742C135.182 63.5742 129.475 65.1124 126.237 67.8735C122.999 70.6346 124.122 74.8262 124.122 74.8262Z" fill="#C00AB5"/>
<path opacity="0.3" d="M124.122 74.8262C124.122 74.8262 128.283 75.9337 131.336 72.8496C134.389 69.7655 135.182 63.5742 135.182 63.5742C135.182 63.5742 129.475 65.1124 126.237 67.8735C122.999 70.6346 124.122 74.8262 124.122 74.8262Z" fill="black"/>
<path d="M160.878 64.6581C160.878 64.6581 159.663 60.528 155.433 59.5282C151.203 58.5283 145.504 61.0664 145.504 61.0664C145.504 61.0664 149.788 65.1349 153.826 66.4501C157.863 67.7653 160.878 64.6581 160.878 64.6581Z" fill="#C00AB5"/>
<path opacity="0.3" d="M160.878 64.6581C160.878 64.6581 159.663 60.528 155.433 59.5282C151.203 58.5283 145.504 61.0664 145.504 61.0664C145.504 61.0664 149.788 65.1349 153.826 66.4501C157.863 67.7653 160.878 64.6581 160.878 64.6581Z" fill="black"/>
<path d="M153.056 47.1914C153.056 47.1914 148.749 47.2606 146.657 51.0369C144.565 54.8132 145.488 61.0352 145.488 61.0352C145.488 61.0352 150.549 57.9588 152.91 54.444C155.271 50.9292 153.056 47.1914 153.056 47.1914Z" fill="#C00AB5"/>
<path opacity="0.3" d="M153.056 47.1914C153.056 47.1914 148.749 47.2606 146.657 51.0369C144.565 54.8132 145.488 61.0352 145.488 61.0352C145.488 61.0352 150.549 57.9588 152.91 54.444C155.271 50.9292 153.056 47.1914 153.056 47.1914Z" fill="black"/>
<path d="M146.443 41.2224C146.443 41.2224 145.228 37.0847 141.005 36.0848C136.783 35.085 131.068 37.623 131.068 37.623C131.068 37.623 135.352 41.6916 139.398 43.0067C143.443 44.3219 146.443 41.2224 146.443 41.2224Z" fill="#C00AB5"/>
<path opacity="0.3" d="M146.443 41.2224C146.443 41.2224 145.228 37.0847 141.005 36.0848C136.783 35.085 131.068 37.623 131.068 37.623C131.068 37.623 135.352 41.6916 139.398 43.0067C143.443 44.3219 146.443 41.2224 146.443 41.2224Z" fill="black"/>
<path d="M138.636 23.7578C138.636 23.7578 134.329 23.8347 132.244 27.6033C130.16 31.3719 131.068 37.6016 131.068 37.6016C131.068 37.6016 136.128 34.5252 138.49 31.0181C140.851 27.511 138.636 23.7578 138.636 23.7578Z" fill="#C00AB5"/>
<path opacity="0.3" d="M138.636 23.7578C138.636 23.7578 134.329 23.8347 132.244 27.6033C130.16 31.3719 131.068 37.6016 131.068 37.6016C131.068 37.6016 136.128 34.5252 138.49 31.0181C140.851 27.511 138.636 23.7578 138.636 23.7578Z" fill="black"/>
<path d="M174.207 79.2242C174.207 79.2242 174.245 83.5311 178.053 85.6462C181.86 87.7612 188.051 86.9075 188.051 86.9075C188.051 86.9075 185.044 81.8161 181.521 79.4241C177.999 77.0322 174.207 79.2242 174.207 79.2242Z" fill="#C00AB5"/>
<path opacity="0.3" d="M174.207 79.2242C174.207 79.2242 174.245 83.5311 178.053 85.6462C181.86 87.7612 188.051 86.9075 188.051 86.9075C188.051 86.9075 185.044 81.8161 181.521 79.4241C177.999 77.0322 174.207 79.2242 174.207 79.2242Z" fill="black"/>
<path d="M176.929 98.1367C176.929 98.1367 181.089 99.2442 184.143 96.1601C187.196 93.076 187.988 86.8848 187.988 86.8848C187.988 86.8848 182.282 88.423 179.044 91.1841C175.806 93.9451 176.929 98.1367 176.929 98.1367Z" fill="#C00AB5"/>
<path opacity="0.3" d="M176.929 98.1367C176.929 98.1367 181.089 99.2442 184.143 96.1601C187.196 93.076 187.988 86.8848 187.988 86.8848C187.988 86.8848 182.282 88.423 179.044 91.1841C175.806 93.9451 176.929 98.1367 176.929 98.1367Z" fill="black"/>
<path d="M230.866 115.296C230.866 115.296 227.059 113.288 223.398 115.611C219.737 117.934 217.553 123.794 217.553 123.794C217.553 123.794 223.459 123.564 227.236 121.602C231.012 119.641 230.866 115.296 230.866 115.296Z" fill="#C00AB5"/>
<path opacity="0.3" d="M230.866 115.296C230.866 115.296 227.059 113.288 223.398 115.611C219.737 117.934 217.553 123.794 217.553 123.794C217.553 123.794 223.459 123.564 227.236 121.602C231.012 119.641 230.866 115.296 230.866 115.296Z" fill="black"/>
<path d="M212.9 108.697C212.9 108.697 209.946 111.835 211.215 115.988C212.484 120.142 217.545 123.795 217.545 123.795C217.545 123.795 218.899 118.042 218.006 113.873C217.114 109.705 212.9 108.697 212.9 108.697Z" fill="#C00AB5"/>
<path opacity="0.3" d="M212.9 108.697C212.9 108.697 209.946 111.835 211.215 115.988C212.484 120.142 217.545 123.795 217.545 123.795C217.545 123.795 218.899 118.042 218.006 113.873C217.114 109.705 212.9 108.697 212.9 108.697Z" fill="black"/>
<path d="M182.998 58.5128C185.39 62.0353 186.305 67.8728 186.305 67.8728C186.305 67.8728 180.245 66.3961 177.507 63.0274C174.769 59.6588 176.322 55.6364 176.322 55.6364C176.322 55.6364 180.614 54.9903 182.998 58.5128ZM176.407 68.5727C172.377 69.9417 171.861 74.2486 171.861 74.2486C171.861 74.2486 175.322 76.8174 179.291 75.0716C183.259 73.3257 186.305 67.8728 186.305 67.8728C186.305 67.8728 180.437 67.2037 176.407 68.5727Z" fill="#C00AB5"/>
<path d="M201.341 63.7573C197.141 64.4571 191.458 62.8497 191.458 62.8497C191.458 62.8497 195.303 57.9582 199.541 56.8815C203.779 55.8047 206.74 58.8888 206.74 58.8888C206.74 58.8888 205.54 63.0574 201.341 63.7573ZM194.957 53.5282C195.403 49.2981 191.704 47.0293 191.704 47.0293C191.704 47.0293 187.928 49.0982 187.858 53.4359C187.789 57.7736 191.465 62.8189 191.465 62.8189C191.465 62.8189 194.519 57.7967 194.957 53.5282Z" fill="#C00AB5"/>
<path d="M157.171 26.7878C155.141 30.5333 150.372 34.025 150.372 34.025C150.372 34.025 148.903 27.9568 150.634 23.9806C152.364 20.0043 156.648 19.5352 156.648 19.5352C156.648 19.5352 159.201 23.0499 157.171 26.7878ZM145.204 25.5495C142.127 22.5962 138.074 24.119 138.074 24.119C138.074 24.119 137.382 28.3721 140.758 31.1024C144.135 33.8327 150.372 34.025 150.372 34.025C150.372 34.025 148.272 28.5029 145.204 25.5495Z" fill="#C00AB5"/>
<path d="M121.724 49.6218C119.693 53.3596 114.925 56.859 114.925 56.859C114.925 56.859 113.456 50.7908 115.186 46.8069C116.917 42.8229 121.201 42.3691 121.201 42.3691C121.201 42.3691 123.754 45.8839 121.724 49.6218ZM109.756 48.3835C106.68 45.4302 102.627 46.953 102.627 46.953C102.627 46.953 101.935 51.1984 105.311 53.9287C108.687 56.659 114.925 56.859 114.925 56.859C114.925 56.859 112.825 51.3369 109.756 48.3835Z" fill="#C00AB5"/>
<path d="M76.0546 28.4713C78.4465 31.9938 79.3617 37.8313 79.3617 37.8313C79.3617 37.8313 73.3012 36.3546 70.5555 32.986C67.8098 29.6173 69.3711 25.6026 69.3711 25.6026C69.3711 25.6026 73.6627 24.9489 76.0546 28.4713ZM69.4634 38.5312C65.4333 39.9002 64.918 44.2072 64.918 44.2072C64.918 44.2072 68.3712 46.7759 72.3475 45.0301C76.3237 43.2842 79.3617 37.8313 79.3617 37.8313C79.3617 37.8313 73.4935 37.1622 69.4634 38.5312Z" fill="#C00AB5"/>
<path d="M201.186 88.9914C200.156 84.8537 201.317 79.0623 201.317 79.0623C201.317 79.0623 206.493 82.5464 207.9 86.6534C209.308 90.7604 206.462 93.9906 206.462 93.9906C206.462 93.9906 202.209 93.1215 201.186 88.9914ZM210.869 81.8311C215.13 81.9388 217.099 78.0779 217.099 78.0779C217.099 78.0779 214.745 74.4708 210.408 74.7323C206.07 74.9938 201.34 79.0623 201.34 79.0623C201.34 79.0623 206.593 81.7157 210.869 81.8311Z" fill="#C00AB5"/>
<path d="M91.5196 36.1004C87.3126 35.4544 82.4057 32.1626 82.4057 32.1626C82.4057 32.1626 87.6203 28.7171 91.9503 29.0016C96.2803 29.2862 98.1723 33.1471 98.1723 33.1471C98.1723 33.1471 95.7343 36.7388 91.5196 36.1004ZM88.6278 24.4255C90.3659 20.58 87.551 17.2344 87.551 17.2344C87.551 17.2344 83.321 18.0035 81.8981 22.1259C80.4753 26.2482 82.4057 32.1242 82.4057 32.1242C82.4057 32.1242 86.8896 28.3094 88.6278 24.4255Z" fill="#C00AB5"/>
<path d="M10.2647 104.798C14.3717 103.683 20.1938 104.713 20.1938 104.713C20.1938 104.713 16.8251 109.966 12.7489 111.466C8.67261 112.966 5.38086 110.182 5.38086 110.182C5.38086 110.182 6.15765 105.913 10.2647 104.798ZM17.6326 114.289C17.6326 118.549 21.5243 120.441 21.5243 120.441C21.5243 120.441 25.0775 118.003 24.7238 113.681C24.37 109.359 20.1938 104.706 20.1938 104.706C20.1938 104.706 17.6557 110.051 17.6326 114.289Z" fill="#C00AB5"/>
<path d="M238.481 18.2655C238.412 22.5186 235.812 27.8254 235.812 27.8254C235.812 27.8254 231.697 23.1339 231.39 18.8039C231.082 14.4738 234.658 12.0742 234.658 12.0742C234.658 12.0742 238.558 14.0124 238.481 18.2655ZM227.306 22.7186C223.222 21.5188 220.322 24.7567 220.322 24.7567C220.322 24.7567 221.684 28.8406 225.937 29.6943C230.19 30.548 235.812 27.8254 235.812 27.8254C235.812 27.8254 231.39 23.9107 227.306 22.7186Z" fill="#C00AB5"/>
<path d="M35.1596 136.207C34.3369 136.292 33.548 136.58 32.8635 137.044C32.1791 137.508 31.6203 138.135 31.2372 138.868C30.0297 141.345 30.8065 145.229 30.8065 145.229C30.8065 145.229 33.8829 143.137 35.298 140.822C35.6868 140.109 35.8789 139.307 35.8546 138.496C35.8303 137.685 35.5904 136.895 35.1596 136.207Z" fill="#C00AB5"/>
<path opacity="0.3" d="M35.1596 136.207C34.3369 136.292 33.548 136.58 32.8635 137.044C32.1791 137.508 31.6203 138.135 31.2372 138.868C30.0297 141.345 30.8065 145.229 30.8065 145.229C30.8065 145.229 33.8829 143.137 35.298 140.822C35.6868 140.109 35.8789 139.307 35.8546 138.496C35.8303 137.685 35.5904 136.895 35.1596 136.207Z" fill="black"/>
<path d="M165.746 151.605C164.923 151.689 164.133 151.974 163.447 152.437C162.761 152.9 162.201 153.526 161.816 154.259C160.616 156.735 161.385 160.619 161.385 160.619C161.385 160.619 164.462 158.527 165.885 156.212C166.273 155.501 166.464 154.7 166.44 153.89C166.416 153.08 166.176 152.292 165.746 151.605Z" fill="#C00AB5"/>
<path opacity="0.3" d="M165.746 151.605C164.923 151.689 164.133 151.974 163.447 152.437C162.761 152.9 162.201 153.526 161.816 154.259C160.616 156.735 161.385 160.619 161.385 160.619C161.385 160.619 164.462 158.527 165.885 156.212C166.273 155.501 166.464 154.7 166.44 153.89C166.416 153.08 166.176 152.292 165.746 151.605Z" fill="black"/>
<path d="M13.7416 213.926C12.9189 214.011 12.13 214.298 11.4456 214.763C10.7611 215.227 10.2023 215.854 9.81921 216.587C8.61172 219.063 9.38851 222.947 9.38851 222.947C9.38851 222.947 12.4649 220.855 13.8801 218.54C14.2642 217.827 14.4537 217.025 14.4294 216.215C14.4051 215.404 14.1679 214.615 13.7416 213.926Z" fill="#C00AB5"/>
<path opacity="0.3" d="M13.7416 213.926C12.9189 214.011 12.13 214.298 11.4456 214.763C10.7611 215.227 10.2023 215.854 9.81921 216.587C8.61172 219.063 9.38851 222.947 9.38851 222.947C9.38851 222.947 12.4649 220.855 13.8801 218.54C14.2642 217.827 14.4537 217.025 14.4294 216.215C14.4051 215.404 14.1679 214.615 13.7416 213.926Z" fill="black"/>
<path d="M172.822 83.5243C172.077 83.1636 171.254 82.993 170.428 83.0279C169.601 83.0628 168.796 83.3021 168.084 83.7243C165.777 85.201 164.377 88.908 164.377 88.908C164.377 88.908 168.122 88.7619 170.53 87.516C171.232 87.1142 171.814 86.5327 172.217 85.8311C172.62 85.1295 172.829 84.3333 172.822 83.5243Z" fill="#C00AB5"/>
<path opacity="0.3" d="M172.822 83.5243C172.077 83.1636 171.254 82.993 170.428 83.0279C169.601 83.0628 168.796 83.3021 168.084 83.7243C165.777 85.201 164.377 88.908 164.377 88.908C164.377 88.908 168.122 88.7619 170.53 87.516C171.232 87.1142 171.814 86.5327 172.217 85.8311C172.62 85.1295 172.829 84.3333 172.822 83.5243Z" fill="black"/>
</svg>
